<svg width="159" height="27" viewBox="0 0 159 27" fill="none" xmlns="http://www.w3.org/2000/svg">
<path d="M61.8535 20.3306V13.2864C61.8535 12.4857 61.6551 11.8617 61.2583 11.4144C60.8615 10.9599 60.3241 10.7327 59.646 10.7327C59.2276 10.7327 58.8524 10.8301 58.5206 11.0248C58.1887 11.2124 57.9254 11.4937 57.7306 11.8689C57.5359 12.2368 57.4385 12.6769 57.4385 13.1891L56.2806 12.5073C56.2734 11.6993 56.4538 10.9888 56.8217 10.3756C57.1968 9.75516 57.7018 9.27182 58.3366 8.92554C58.9715 8.57927 59.6784 8.40613 60.4576 8.40613C61.7489 8.40613 62.7372 8.79569 63.4225 9.57481C64.1151 10.3467 64.4614 11.3639 64.4614 12.6264V20.3697C64.3478 20.3493 62.4116 20.3053 61.8535 20.3306ZM47.7969 22.3902V8.6983H50.1018V12.3234H50.4264V21.65C49.8395 21.7809 48.4579 22.1331 47.7969 22.3902ZM54.8414 20.8434V13.3189C54.8414 12.5037 54.643 11.8689 54.2462 11.4144C53.8495 10.9599 53.3084 10.7327 52.6231 10.7327C51.9594 10.7327 51.4255 10.9599 51.0216 11.4144C50.6248 11.8689 50.4264 12.4604 50.4264 13.1891L49.2577 12.4099C49.2577 11.6525 49.4453 10.9707 49.8204 10.3647C50.1956 9.75877 50.7005 9.28264 51.3354 8.93636C51.9774 8.58287 52.6952 8.40613 53.4888 8.40613C54.3617 8.40613 55.0903 8.5937 55.6746 8.96883C56.2662 9.33674 56.7062 9.84173 56.9948 10.4838C57.2906 11.1186 57.4385 11.8364 57.4385 12.6372V20.5572C57.0751 20.5739 55.2077 20.78 54.8414 20.8434Z" fill="white"/>
<path d="M71.1731 20.7097C70.0045 20.7097 68.9837 20.4464 68.1108 19.9198C67.2379 19.3931 66.5598 18.6681 66.0764 17.7447C65.6003 16.8141 65.3622 15.7464 65.3622 14.5417C65.3622 13.3153 65.6075 12.2404 66.0981 11.317C66.5886 10.3936 67.2703 9.6722 68.1432 9.15278C69.0161 8.63337 70.0261 8.37367 71.1731 8.37367C72.349 8.37367 73.3734 8.63698 74.2463 9.16361C75.1192 9.69023 75.7974 10.4189 76.2807 11.3495C76.764 12.2729 77.0057 13.3369 77.0057 14.5417C77.0057 15.7537 76.7604 16.8249 76.2699 17.7556C75.7865 18.679 75.1084 19.404 74.2355 19.9306C73.3626 20.45 72.3418 20.7097 71.1731 20.7097ZM71.1731 18.2641C72.212 18.2641 72.9839 17.9179 73.4889 17.2253C73.9938 16.5328 74.2463 15.6382 74.2463 14.5417C74.2463 13.4091 73.9902 12.5073 73.478 11.8364C72.9658 11.1583 72.1975 10.8192 71.1731 10.8192C70.4734 10.8192 69.8963 10.9779 69.4418 11.2954C68.9945 11.6056 68.6626 12.042 68.4462 12.6047C68.2298 13.1602 68.1216 13.8059 68.1216 14.5417C68.1216 15.6743 68.3777 16.5797 68.8899 17.2578C69.4093 17.9287 70.1704 18.2641 71.1731 18.2641Z" fill="white"/>
<path d="M83.2098 20.7097C82.1349 20.7097 81.197 20.4392 80.3963 19.8981C79.5955 19.3571 78.9751 18.6212 78.535 17.6906C78.095 16.76 77.875 15.7104 77.875 14.5417C77.875 13.3586 78.095 12.3053 78.535 11.3819C78.9823 10.4513 79.6135 9.71909 80.4287 9.18525C81.2439 8.64419 82.2034 8.37367 83.3071 8.37367C84.4181 8.37367 85.3487 8.64419 86.099 9.18525C86.8565 9.71909 87.43 10.4513 87.8195 11.3819C88.2091 12.3125 88.4039 13.3658 88.4039 14.5417C88.4039 15.7032 88.2091 16.7528 87.8195 17.6906C87.43 18.6212 86.8493 19.3571 86.0773 19.8981C85.3054 20.4392 84.3496 20.7097 83.2098 20.7097ZM83.6101 18.3724C84.3099 18.3724 84.8726 18.2136 85.2982 17.8962C85.7311 17.5716 86.0449 17.1207 86.2397 16.5436C86.4417 15.9665 86.5427 15.2992 86.5427 14.5417C86.5427 13.777 86.4417 13.1097 86.2397 12.5398C86.0449 11.9627 85.7383 11.5154 85.3199 11.198C84.9015 10.8733 84.3604 10.711 83.6967 10.711C82.9969 10.711 82.4198 10.8842 81.9653 11.2304C81.5108 11.5695 81.1754 12.0312 80.959 12.6155C80.7425 13.1927 80.6343 13.8347 80.6343 14.5417C80.6343 15.2559 80.7389 15.9051 80.9482 16.4895C81.1646 17.0666 81.4928 17.5247 81.9329 17.8638C82.3729 18.2028 82.932 18.3724 83.6101 18.3724ZM86.5427 20.3851V12.1827H86.218V4.80271H88.8475V20.3851H86.5427Z" fill="white"/>
<path d="M94.5327 20.7205C93.667 20.7205 92.9528 20.5763 92.3901 20.2877C91.8274 19.9991 91.3801 19.6312 91.0483 19.1839C90.7164 18.7367 90.4712 18.2605 90.3125 17.7556C90.1537 17.2506 90.0491 16.7744 89.9986 16.3272C89.9554 15.8727 89.9337 15.5048 89.9337 15.2234V8.6983H92.5741V14.3253C92.5741 14.686 92.5993 15.0936 92.6498 15.5481C92.7003 15.9953 92.8157 16.4282 92.9961 16.8466C93.1837 17.2578 93.4578 17.5968 93.8185 17.8638C94.1864 18.1307 94.6806 18.2641 95.301 18.2641C95.6328 18.2641 95.9611 18.21 96.2857 18.1018C96.6103 17.9936 96.9025 17.8097 97.1622 17.55C97.4291 17.283 97.6419 16.9187 97.8006 16.457C97.9594 15.9953 98.0387 15.411 98.0387 14.704L99.5861 15.3641C99.5861 16.3596 99.3914 17.2614 99.0018 18.0694C98.6194 18.8773 98.0531 19.523 97.3029 20.0063C96.5526 20.4825 95.6292 20.7205 94.5327 20.7205ZM98.3525 20.3851V16.76H98.0387V8.6983H100.657V20.3851H98.3525Z" fill="white"/>
<path d="M101.75 20.3851V4.47807H104.358V20.3851H101.75Z" fill="white"/>
<path d="M111.397 20.7097C110.214 20.7097 109.175 20.4536 108.281 19.9414C107.386 19.4292 106.687 18.7186 106.182 17.8097C105.684 16.9007 105.435 15.8546 105.435 14.6715C105.435 13.3947 105.68 12.2873 106.171 11.3495C106.661 10.4044 107.343 9.6722 108.216 9.15278C109.089 8.63337 110.099 8.37367 111.246 8.37367C112.458 8.37367 113.486 8.65862 114.33 9.22853C115.181 9.79123 115.812 10.5884 116.224 11.62C116.635 12.6516 116.79 13.8672 116.689 15.2667H114.103V14.3144C114.095 13.0448 113.872 12.1178 113.432 11.5334C112.992 10.9491 112.299 10.6569 111.354 10.6569C110.286 10.6569 109.493 10.9888 108.973 11.6525C108.454 12.3089 108.194 13.272 108.194 14.5417C108.194 15.7248 108.454 16.641 108.973 17.2902C109.493 17.9395 110.25 18.2641 111.246 18.2641C111.888 18.2641 112.44 18.1235 112.901 17.8421C113.37 17.5536 113.731 17.1388 113.984 16.5977L116.559 17.3768C116.112 18.4301 115.419 19.2489 114.481 19.8332C113.551 20.4175 112.523 20.7097 111.397 20.7097ZM107.372 15.2667V13.2973H115.412V15.2667H107.372Z" fill="white"/>
<path d="M121.041 19.5749L118.66 11.7837H119.511L121.466 18.1826L123.421 11.7837H124.222L126.184 18.1826L128.146 11.7837H128.983L126.603 19.5749H125.824L123.825 13.0895L121.82 19.5749H121.041ZM129.95 10.2111V9.15059H130.78V10.2111H129.95ZM129.95 19.5749V11.7837H130.78V19.5749H129.95ZM138.173 19.5749V15.5206C138.173 15.03 138.123 14.5924 138.022 14.2076C137.926 13.8229 137.777 13.4959 137.575 13.2265C137.378 12.9572 137.127 12.7528 136.824 12.6133C136.526 12.4739 136.173 12.4041 135.764 12.4041C135.341 12.4041 134.973 12.4787 134.66 12.6278C134.352 12.772 134.098 12.9764 133.896 13.241C133.698 13.5055 133.549 13.8205 133.448 14.186C133.352 14.5467 133.304 14.9411 133.304 15.3691L132.648 15.2898C132.648 14.4481 132.789 13.7556 133.073 13.2121C133.362 12.6638 133.749 12.2598 134.235 12.0001C134.72 11.7356 135.266 11.6034 135.872 11.6034C136.3 11.6034 136.683 11.6659 137.019 11.7909C137.361 11.916 137.656 12.0939 137.907 12.3248C138.157 12.5508 138.363 12.8201 138.527 13.1327C138.69 13.4405 138.811 13.7796 138.888 14.1499C138.969 14.5203 139.01 14.9074 139.01 15.3114V19.5749H138.173ZM132.467 19.5749V11.7837H133.225V13.5367H133.304V19.5749H132.467ZM143.428 23.2541C143.043 23.2541 142.658 23.1964 142.274 23.0809C141.894 22.9703 141.538 22.7876 141.206 22.5327C140.874 22.2826 140.593 21.9483 140.362 21.5299L141.112 21.0826C141.348 21.5636 141.682 21.9075 142.115 22.1143C142.548 22.3211 142.988 22.4245 143.435 22.4245C144.065 22.4245 144.563 22.3066 144.928 22.071C145.299 21.8401 145.563 21.4914 145.722 21.0249C145.881 20.5632 145.96 19.9885 145.96 19.3008V17.2592H146.047V11.7837H146.804V19.3008C146.804 19.5316 146.799 19.7529 146.79 19.9645C146.78 20.1761 146.758 20.3877 146.725 20.5993C146.638 21.2005 146.46 21.6958 146.191 22.0854C145.922 22.4798 145.556 22.7731 145.094 22.9655C144.637 23.1579 144.082 23.2541 143.428 23.2541ZM143.392 19.7913C142.656 19.7913 142.033 19.611 141.523 19.2503C141.018 18.8848 140.631 18.3918 140.362 17.7714C140.097 17.1462 139.965 16.444 139.965 15.6649C139.965 14.8954 140.097 14.2004 140.362 13.58C140.626 12.9596 141.006 12.4691 141.502 12.1084C142.002 11.7476 142.605 11.5673 143.312 11.5673C144.039 11.5673 144.652 11.7452 145.152 12.1011C145.652 12.457 146.03 12.9452 146.285 13.5656C146.54 14.1812 146.667 14.881 146.667 15.6649C146.667 16.444 146.54 17.1438 146.285 17.7642C146.03 18.3846 145.659 18.8775 145.174 19.2431C144.688 19.6086 144.094 19.7913 143.392 19.7913ZM143.442 18.9978C144.024 18.9978 144.508 18.8535 144.892 18.5649C145.282 18.2716 145.57 17.8748 145.758 17.3746C145.95 16.8696 146.047 16.2997 146.047 15.6649C146.047 15.0252 145.95 14.4553 145.758 13.9552C145.566 13.455 145.277 13.0654 144.892 12.7865C144.508 12.5027 144.029 12.3608 143.457 12.3608C142.865 12.3608 142.377 12.5075 141.992 12.8009C141.607 13.0895 141.321 13.4838 141.134 13.984C140.946 14.4794 140.852 15.0397 140.852 15.6649C140.852 16.2949 140.949 16.8624 141.141 17.3674C141.338 17.8676 141.627 18.2644 142.007 18.5577C142.391 18.8511 142.87 18.9978 143.442 18.9978ZM151.221 19.7769C150.322 19.7769 149.579 19.5869 148.992 19.207C148.41 18.827 148.049 18.298 147.91 17.6199L148.761 17.4756C148.881 17.9373 149.165 18.3052 149.612 18.5794C150.06 18.8535 150.608 18.9906 151.257 18.9906C151.902 18.9906 152.414 18.8535 152.794 18.5794C153.174 18.3052 153.364 17.9301 153.364 17.454C153.364 17.1943 153.304 16.9827 153.183 16.8191C153.068 16.6508 152.837 16.4969 152.491 16.3574C152.145 16.218 151.63 16.0544 150.947 15.8669C150.226 15.6745 149.661 15.4821 149.252 15.2898C148.848 15.0974 148.562 14.8786 148.393 14.6333C148.23 14.388 148.148 14.0874 148.148 13.7315C148.148 13.3035 148.271 12.9283 148.516 12.6061C148.761 12.2791 149.103 12.0242 149.54 11.8414C149.983 11.6587 150.493 11.5673 151.07 11.5673C151.647 11.5673 152.166 11.6635 152.628 11.8559C153.09 12.0434 153.462 12.3079 153.746 12.6494C154.03 12.9861 154.193 13.378 154.237 13.8253L153.385 13.984C153.304 13.4838 153.051 13.0895 152.628 12.8009C152.205 12.5075 151.676 12.3584 151.041 12.3536C150.44 12.344 149.949 12.4642 149.569 12.7143C149.189 12.9596 148.999 13.2842 148.999 13.6882C148.999 13.9191 149.064 14.1163 149.194 14.2798C149.329 14.4385 149.564 14.5852 149.901 14.7198C150.238 14.8545 150.714 14.9988 151.329 15.1527C152.08 15.3451 152.664 15.5422 153.082 15.7442C153.506 15.9462 153.804 16.1843 153.977 16.4584C154.15 16.7278 154.237 17.062 154.237 17.4612C154.237 18.1826 153.967 18.7501 153.429 19.1637C152.895 19.5725 152.159 19.7769 151.221 19.7769ZM155.531 19.5749V18.5289H156.577V19.5749H155.531Z" fill="white"/>
<rect x="17.9121" width="7.16473" height="26.8677" fill="white"/>
<rect x="8.95605" width="7.16473" height="13.4339" fill="white"/>
<rect x="26.8682" y="13.4342" width="7.16473" height="13.4339" fill="white"/>
<rect width="7.16473" height="20.1508" fill="white"/>
<rect x="35.8232" y="6.71732" width="7.16473" height="20.1508" fill="white"/>
</svg>
