<svg width="132" height="23" viewBox="0 0 132 23" fill="none" xmlns="http://www.w3.org/2000/svg">
<path d="M51.5087 17.0223V11.125C51.5087 10.4546 51.3426 9.9322 51.0104 9.55775C50.6783 9.17726 50.2283 8.98702 49.6606 8.98702C49.3103 8.98702 48.9963 9.06855 48.7184 9.23162C48.4406 9.38865 48.2202 9.62419 48.0571 9.93824C47.894 10.2463 47.8125 10.6147 47.8125 11.0435L46.8432 10.4727C46.8371 9.79631 46.9881 9.20142 47.2961 8.68806C47.6102 8.16867 48.033 7.76402 48.5644 7.47413C49.0959 7.18423 49.6878 7.03928 50.34 7.03928C51.4211 7.03928 52.2485 7.36541 52.8223 8.01768C53.4021 8.66391 53.692 9.51548 53.692 10.5724V17.055C53.5969 17.0379 51.9759 17.0011 51.5087 17.0223ZM39.7407 18.7465V7.28388H41.6703V10.3187H41.9421V18.1268C41.4508 18.2364 40.2941 18.5312 39.7407 18.7465ZM45.6383 17.4516V11.1522C45.6383 10.4697 45.4722 9.93824 45.14 9.55775C44.8079 9.17726 44.3549 8.98702 43.7811 8.98702C43.2255 8.98702 42.7786 9.17726 42.4404 9.55775C42.1082 9.93824 41.9421 10.4335 41.9421 11.0435L40.9637 10.3912C40.9637 9.75706 41.1207 9.18632 41.4348 8.67901C41.7489 8.17169 42.1716 7.77308 42.7031 7.48318C43.2406 7.18725 43.8415 7.03928 44.5059 7.03928C45.2367 7.03928 45.8467 7.19631 46.3359 7.51036C46.8311 7.81838 47.1995 8.24114 47.4411 8.77866C47.6887 9.31013 47.8125 9.91106 47.8125 10.5814V17.2119C47.5083 17.226 45.9449 17.3985 45.6383 17.4516Z" fill="black"/>
<path d="M59.311 17.3396C58.3326 17.3396 57.478 17.1192 56.7472 16.6783C56.0164 16.2374 55.4487 15.6305 55.0441 14.8574C54.6455 14.0783 54.4461 13.1845 54.4461 12.1759C54.4461 11.1492 54.6515 10.2493 55.0622 9.47622C55.4729 8.70316 56.0436 8.09921 56.7744 7.66437C57.5052 7.22953 58.3507 7.0121 59.311 7.0121C60.2954 7.0121 61.153 7.23255 61.8838 7.67343C62.6146 8.11431 63.1823 8.7243 63.5869 9.5034C63.9916 10.2765 64.1939 11.1673 64.1939 12.1759C64.1939 13.1905 63.9886 14.0874 63.5779 14.8665C63.1732 15.6395 62.6055 16.2465 61.8747 16.6874C61.144 17.1222 60.2894 17.3396 59.311 17.3396ZM59.311 15.2923C60.1807 15.2923 60.8269 15.0024 61.2496 14.4226C61.6724 13.8428 61.8838 13.0939 61.8838 12.1759C61.8838 11.2277 61.6694 10.4727 61.2406 9.91106C60.8118 9.34335 60.1686 9.05949 59.311 9.05949C58.7251 9.05949 58.242 9.19236 57.8615 9.4581C57.487 9.7178 57.2092 10.0832 57.028 10.5543C56.8468 11.0193 56.7563 11.5598 56.7563 12.1759C56.7563 13.1241 56.9707 13.882 57.3995 14.4497C57.8343 15.0114 58.4715 15.2923 59.311 15.2923Z" fill="black"/>
<path d="M69.3878 17.3396C68.4879 17.3396 67.7028 17.1132 67.0324 16.6602C66.362 16.2072 65.8426 15.5912 65.4742 14.8121C65.1058 14.033 64.9216 13.1543 64.9216 12.1759C64.9216 11.1854 65.1058 10.3036 65.4742 9.53058C65.8487 8.75148 66.3771 8.13847 67.0596 7.69155C67.7421 7.23858 68.5453 7.0121 69.4694 7.0121C70.3994 7.0121 71.1785 7.23858 71.8066 7.69155C72.4408 8.13847 72.9209 8.75148 73.2471 9.53058C73.5732 10.3097 73.7363 11.1914 73.7363 12.1759C73.7363 13.1482 73.5732 14.027 73.2471 14.8121C72.9209 15.5912 72.4348 16.2072 71.7885 16.6602C71.1423 17.1132 70.3421 17.3396 69.3878 17.3396ZM69.723 15.3829C70.3088 15.3829 70.7799 15.25 71.1363 14.9842C71.4986 14.7125 71.7613 14.335 71.9244 13.8518C72.0935 13.3687 72.1781 12.81 72.1781 12.1759C72.1781 11.5357 72.0935 10.977 71.9244 10.4999C71.7613 10.0168 71.5047 9.64231 71.1544 9.37657C70.8041 9.10479 70.3511 8.9689 69.7955 8.9689C69.2097 8.9689 68.7265 9.11385 68.346 9.40375C67.9655 9.6876 67.6847 10.0741 67.5035 10.5633C67.3223 11.0465 67.2317 11.584 67.2317 12.1759C67.2317 12.7738 67.3193 13.3173 67.4944 13.8065C67.6756 14.2897 67.9504 14.6732 68.3188 14.9571C68.6872 15.2409 69.1553 15.3829 69.723 15.3829ZM72.1781 17.0679V10.201H71.9063V4.02255H74.1077V17.0679H72.1781Z" fill="black"/>
<path d="M78.8672 17.3487C78.1425 17.3487 77.5445 17.2279 77.0735 16.9863C76.6024 16.7448 76.2279 16.4367 75.9501 16.0623C75.6723 15.6878 75.467 15.2892 75.3341 14.8665C75.2012 14.4437 75.1136 14.0451 75.0714 13.6707C75.0351 13.2902 75.017 12.9821 75.017 12.7466V7.28388H77.2275V11.9947C77.2275 12.2967 77.2486 12.6379 77.2909 13.0184C77.3332 13.3928 77.4298 13.7552 77.5808 14.1055C77.7378 14.4497 77.9673 14.7336 78.2693 14.9571C78.5773 15.1805 78.991 15.2923 79.5104 15.2923C79.7882 15.2923 80.063 15.247 80.3348 15.1564C80.6066 15.0658 80.8512 14.9118 81.0686 14.6943C81.2921 14.4709 81.4702 14.1659 81.6031 13.7794C81.736 13.3928 81.8024 12.9036 81.8024 12.3118L83.0979 12.8644C83.0979 13.6978 82.9348 14.4528 82.6087 15.1292C82.2886 15.8056 81.8145 16.3462 81.1864 16.7508C80.5583 17.1494 79.7852 17.3487 78.8672 17.3487ZM82.0651 17.0679V14.033H81.8024V7.28388H83.9947V17.0679H82.0651Z" fill="black"/>
<path d="M84.9093 17.0679V3.75077H87.0926V17.0679H84.9093Z" fill="black"/>
<path d="M92.986 17.3396C91.9956 17.3396 91.1259 17.1252 90.377 16.6964C89.6281 16.2676 89.0422 15.6727 88.6195 14.9118C88.2028 14.1508 87.9944 13.2751 87.9944 12.2846C87.9944 11.2156 88.1997 10.2885 88.6104 9.5034C89.0211 8.71222 89.5918 8.09921 90.3226 7.66437C91.0534 7.22953 91.8989 7.0121 92.8592 7.0121C93.8738 7.0121 94.7345 7.25066 95.4411 7.72778C96.1538 8.19887 96.6822 8.86623 97.0265 9.72988C97.3707 10.5935 97.5006 11.6112 97.416 12.7828H95.2508V11.9856C95.2448 10.9227 95.0576 10.1466 94.6892 9.6574C94.3208 9.16821 93.741 8.92361 92.9498 8.92361C92.056 8.92361 91.3916 9.20142 90.9568 9.75706C90.5219 10.3067 90.3045 11.1129 90.3045 12.1759C90.3045 13.1664 90.5219 13.9334 90.9568 14.4769C91.3916 15.0205 92.0257 15.2923 92.8592 15.2923C93.3967 15.2923 93.8587 15.1745 94.2453 14.9389C94.6378 14.6974 94.9398 14.3501 95.1512 13.8971L97.3073 14.5494C96.9328 15.4312 96.3531 16.1166 95.5679 16.6058C94.7888 17.095 93.9282 17.3396 92.986 17.3396ZM89.616 12.7828V11.1341H96.347V12.7828H89.616Z" fill="black"/>
<path d="M100.813 15.9947L98.8198 9.47207H99.5324L101.169 14.8291L102.806 9.47207H103.476L105.119 14.8291L106.762 9.47207H107.462L105.469 15.9947H104.817L103.144 10.5652L101.465 15.9947H100.813ZM108.272 8.15546V7.26765H108.966V8.15546H108.272ZM108.272 15.9947V9.47207H108.966V15.9947H108.272ZM115.156 15.9947V12.6005C115.156 12.1898 115.114 11.8235 115.029 11.5013C114.949 11.1792 114.824 10.9054 114.655 10.68C114.49 10.4545 114.28 10.2834 114.027 10.1666C113.777 10.0499 113.481 9.99147 113.139 9.99147C112.785 9.99147 112.477 10.0539 112.215 10.1787C111.957 10.2995 111.744 10.4706 111.575 10.6921C111.41 10.9135 111.285 11.1772 111.2 11.4832C111.12 11.7852 111.08 12.1154 111.08 12.4737L110.53 12.4073C110.53 11.7027 110.649 11.1229 110.886 10.6679C111.128 10.2089 111.452 9.87068 111.859 9.65326C112.265 9.43181 112.722 9.32108 113.23 9.32108C113.588 9.32108 113.908 9.37343 114.19 9.47811C114.476 9.5828 114.723 9.73177 114.933 9.92503C115.142 10.1143 115.315 10.3397 115.452 10.6015C115.589 10.8591 115.69 11.143 115.754 11.453C115.823 11.7631 115.857 12.0872 115.857 12.4254V15.9947H115.156ZM110.379 15.9947V9.47207H111.013V10.9397H111.08V15.9947H110.379ZM119.555 19.0749C119.233 19.0749 118.911 19.0266 118.589 18.9299C118.271 18.8373 117.973 18.6843 117.695 18.4709C117.417 18.2616 117.182 17.9817 116.988 17.6314L117.616 17.257C117.814 17.6596 118.094 17.9475 118.456 18.1206C118.818 18.2938 119.187 18.3803 119.561 18.3803C120.089 18.3803 120.505 18.2817 120.811 18.0844C121.121 17.8911 121.343 17.5992 121.476 17.2087C121.609 16.8221 121.675 16.341 121.675 15.7652V14.0561H121.747V9.47207H122.382V15.7652C122.382 15.9585 122.378 16.1437 122.369 16.3209C122.361 16.498 122.343 16.6752 122.315 16.8523C122.243 17.3556 122.094 17.7703 121.868 18.0965C121.643 18.4266 121.337 18.6722 120.95 18.8333C120.568 18.9944 120.103 19.0749 119.555 19.0749ZM119.525 16.1759C118.909 16.1759 118.387 16.0249 117.961 15.723C117.538 15.417 117.214 15.0043 116.988 14.4849C116.767 13.9614 116.656 13.3736 116.656 12.7213C116.656 12.0771 116.767 11.4953 116.988 10.9759C117.21 10.4565 117.528 10.0458 117.943 9.74385C118.361 9.44187 118.867 9.29089 119.458 9.29089C120.066 9.29089 120.58 9.43986 120.999 9.73781C121.417 10.0358 121.733 10.4444 121.947 10.9638C122.16 11.4792 122.267 12.065 122.267 12.7213C122.267 13.3736 122.16 13.9594 121.947 14.4788C121.733 14.9982 121.423 15.4109 121.017 15.7169C120.61 16.0229 120.113 16.1759 119.525 16.1759ZM119.567 15.5116C120.054 15.5116 120.459 15.3908 120.781 15.1492C121.107 14.9036 121.349 14.5714 121.506 14.1527C121.667 13.7299 121.747 13.2528 121.747 12.7213C121.747 12.1858 121.667 11.7087 121.506 11.29C121.345 10.8712 121.103 10.5451 120.781 10.3116C120.459 10.074 120.058 9.95523 119.579 9.95523C119.084 9.95523 118.675 10.078 118.353 10.3236C118.031 10.5652 117.792 10.8954 117.635 11.3141C117.478 11.7288 117.399 12.1979 117.399 12.7213C117.399 13.2488 117.48 13.7239 117.641 14.1466C117.806 14.5654 118.047 14.8976 118.365 15.1432C118.687 15.3888 119.088 15.5116 119.567 15.5116ZM126.08 16.1638C125.327 16.1638 124.705 16.0048 124.213 15.6867C123.726 15.3686 123.424 14.9257 123.307 14.358L124.02 14.2372C124.121 14.6238 124.358 14.9318 124.733 15.1613C125.107 15.3908 125.566 15.5055 126.11 15.5055C126.649 15.5055 127.078 15.3908 127.396 15.1613C127.714 14.9318 127.873 14.6177 127.873 14.2191C127.873 14.0017 127.823 13.8245 127.722 13.6876C127.626 13.5467 127.432 13.4179 127.143 13.3011C126.853 13.1844 126.422 13.0475 125.85 12.8904C125.246 12.7294 124.773 12.5683 124.431 12.4073C124.093 12.2462 123.853 12.063 123.712 11.8577C123.575 11.6523 123.507 11.4007 123.507 11.1027C123.507 10.7444 123.609 10.4303 123.815 10.1606C124.02 9.88678 124.306 9.67339 124.672 9.52039C125.043 9.36739 125.47 9.29089 125.953 9.29089C126.436 9.29089 126.871 9.37141 127.257 9.53247C127.644 9.68949 127.956 9.91094 128.193 10.1968C128.431 10.4787 128.568 10.8068 128.604 11.1813L127.891 11.3141C127.823 10.8954 127.612 10.5652 127.257 10.3236C126.903 10.078 126.46 9.95322 125.929 9.94919C125.425 9.94114 125.015 10.0418 124.697 10.2512C124.378 10.4565 124.219 10.7283 124.219 11.0665C124.219 11.2598 124.274 11.4248 124.382 11.5617C124.495 11.6946 124.693 11.8174 124.974 11.9301C125.256 12.0429 125.655 12.1637 126.17 12.2925C126.798 12.4536 127.287 12.6187 127.638 12.7878C127.992 12.9569 128.242 13.1562 128.387 13.3857C128.532 13.6111 128.604 13.891 128.604 14.2252C128.604 14.8291 128.379 15.3042 127.928 15.6505C127.481 15.9927 126.865 16.1638 126.08 16.1638ZM129.688 15.9947V15.119H130.563V15.9947H129.688Z" fill="black"/>
<rect x="14.9956" width="5.9982" height="22.4932" fill="#1231FF"/>
<rect x="7.4978" width="5.9982" height="11.2466" fill="#1231FF"/>
<rect x="22.4937" y="11.2468" width="5.9982" height="11.2466" fill="#1231FF"/>
<rect y="3.8147e-06" width="5.9982" height="16.8699" fill="#1231FF"/>
<rect x="29.9913" y="5.62524" width="5.9982" height="16.8699" fill="#1231FF"/>
</svg>
