<svg width="45" height="14" viewBox="0 0 45 14" fill="none" xmlns="http://www.w3.org/2000/svg">
<path d="M0.764963 12.1777C0.558787 12.1777 0.365913 12.1511 0.212944 12.0647C0.10653 12.0115 0.000116825 11.8784 0.000116825 11.7255C0.000116825 11.1269 0.272801 10.8143 0.6652 10.4884C1.58301 9.71027 2.79347 9.32452 4.04382 8.91217C4.15024 8.87227 4.16354 8.89222 4.22339 8.79911L4.88183 7.74163C5.24097 7.163 6.05237 6.07892 6.51793 5.53355C6.54453 5.50695 6.55119 5.5003 6.57779 5.46039L6.89703 5.06134C6.92363 5.02809 6.93028 5.02144 6.95689 4.98818C7.03005 4.88177 7.14311 4.78201 7.21627 4.68224L7.73503 4.05707C7.77494 4.00386 7.82149 3.9706 7.86805 3.91075C7.94786 3.79768 8.16734 3.5649 8.2671 3.45849C8.32031 3.40528 8.34691 3.36538 8.40012 3.30552L8.66615 3.00623C8.69275 2.97298 9.00534 2.65374 9.14501 2.56063C9.14501 2.55398 9.21152 2.54733 9.28468 2.54733C9.39774 2.54733 9.54406 2.56728 9.54406 2.66704C9.54406 2.70695 9.51081 2.7668 9.4443 2.83996C9.29133 3.01289 9.17826 3.27227 9.1051 3.34543L8.93218 3.5383C8.70605 3.75778 8.33361 4.03046 8.12078 4.26989L7.96116 4.44946C7.8348 4.57583 7.74168 4.7022 7.62197 4.82191L7.37589 5.1079C7.12981 5.34733 6.71081 5.89269 6.47138 6.15873L5.69988 7.12975C5.29418 7.66847 4.90178 8.22049 4.52933 8.77916C4.58919 8.77251 4.67565 8.73925 4.73551 8.72595C5.79299 8.46657 6.85047 8.22714 7.92126 8.05422C8.22054 8.00101 8.49323 7.9478 8.79917 7.90125C9.08515 7.85469 9.38444 7.80813 9.69703 7.76158C11.0205 7.57536 10.5816 7.76158 11.4329 7.18961L11.8852 6.87037C12.2842 6.58438 12.6433 6.25849 13.0224 5.9459C13.8072 5.20766 13.5346 5.5003 14.2928 4.64234C14.7783 4.03711 15.0642 3.43854 15.0642 2.87987C15.0642 2.27464 14.7184 1.72262 13.927 1.28367C13.2951 0.931175 12.5835 0.744952 11.8785 0.598634C11.5726 0.538776 10.3089 0.345902 9.96971 0.345902C9.70368 0.339251 9.47755 0.292695 9.21817 0.292695L7.8614 0.272742C7.74834 0.272742 7.71508 0.292695 7.60202 0.292695L7.41579 0.286045C7.38254 0.286045 7.35594 0.292695 7.32933 0.292695L5.83955 0.41241C5.52696 0.445664 5.19442 0.498871 4.89513 0.552078C4.44287 0.625236 3.99727 0.7383 3.57161 0.877968C3.06615 1.04424 2.54739 1.25707 2.20819 1.67607C2.11508 1.79578 2.07518 1.9022 2.07518 2.00196C2.07518 2.3478 2.51413 2.59388 2.6804 2.7402C2.71366 2.76015 2.72696 2.78676 2.72696 2.81336C2.72696 2.89982 2.55404 2.99293 2.45427 3.08604C2.29465 3.05279 2.13503 2.81336 2.02862 2.68699C1.90225 2.53403 1.80249 2.27464 1.80249 2.02191C1.80249 1.48984 2.34786 1.12405 2.72031 0.937826C3.18587 0.705047 3.68468 0.552078 4.20344 0.425712C5.19442 0.17298 5.82625 0.146377 6.79727 0.0399634L7.51556 5.84126e-05C9.20487 0.0067091 10.1958 5.84126e-05 11.9051 0.365855C12.517 0.49222 13.5678 0.831413 14.0799 1.17726C14.4723 1.44329 14.745 1.64281 15.011 2.04851C15.2106 2.3611 15.297 2.68699 15.297 3.00623C15.297 3.5649 15.0443 4.12357 14.7184 4.60908C14.4524 5.01479 14.2728 5.15445 14.0334 5.46039C13.9336 5.58676 13.3084 6.13878 13.1555 6.27179L11.4795 7.5421C11.7056 7.49555 13.0158 7.36253 13.2153 7.35588C13.5146 7.34258 13.8139 7.28937 14.1065 7.28937L14.5654 7.26277C14.6053 7.26277 14.6985 7.24946 14.7849 7.24946C14.878 7.24946 14.9645 7.26277 14.9645 7.32262C14.9645 7.35588 14.9578 7.34258 14.9512 7.38913C14.7849 7.42904 14.5654 7.44234 14.3992 7.44234C13.8405 7.44234 12.2177 7.64186 11.7189 7.71502C11.2134 7.78153 11.1735 7.74163 10.7878 7.96775L10.422 8.20053C10.1892 8.36015 9.92316 8.49982 9.67708 8.63949C8.91223 9.07179 8.58634 9.26467 7.76164 9.67702C6.89703 10.1093 6.2918 10.3554 5.32743 10.7944C4.91508 10.9939 4.48278 11.1336 4.05047 11.3065C3.55831 11.4993 2.33456 11.9117 1.82244 12.0181C1.54976 12.078 1.13741 12.1777 0.764963 12.1777ZM0.991091 11.9849C1.26377 11.9849 1.52316 11.9383 1.73598 11.8851C2.08183 11.7986 2.38111 11.6922 2.72031 11.5991C3.51176 11.3597 4.63575 10.8808 5.40724 10.5483C5.8728 10.3488 6.6576 9.963 7.1032 9.73688L8.34691 9.09174C8.40012 9.06514 8.43337 9.04519 8.47993 9.01859C8.56639 8.96538 8.65285 8.92547 8.73931 8.87227L10.2357 7.98106C10.2823 7.9478 10.269 7.96775 10.2956 7.9345C10.1759 7.94115 8.44002 8.25374 8.42007 8.26039C8.11413 8.3269 7.81484 8.39341 7.51556 8.44661L6.15879 8.73925C5.80629 8.81241 5.61342 8.87892 5.28088 8.95873L4.41627 9.19816C4.21674 9.26467 4.23005 9.29792 4.14358 9.47084C4.05047 9.67037 3.91081 10.0628 3.91081 10.3355H3.82434C3.76449 10.3355 3.74453 10.2756 3.74453 10.1758C3.74453 9.91645 3.90415 9.43094 3.96401 9.31122L2.89988 9.70362C2.20819 9.963 1.4367 10.3155 0.851423 10.7478C0.651898 10.8941 0.166388 11.353 0.166388 11.5925C0.166388 11.9117 0.771613 11.9849 0.991091 11.9849ZM15.5593 6.62429H15.5659C15.7056 6.62429 15.8187 6.68414 15.8386 6.77726C16.0847 6.77726 16.1778 6.82381 16.1778 6.90362C16.1778 7.0965 15.6524 7.49555 15.6524 7.9079C15.812 7.9079 16.0913 7.66847 16.2044 7.57536C16.3507 7.45564 16.5569 7.24946 16.7032 7.24946C16.7165 7.24946 16.7298 7.24946 16.7498 7.25612C16.7431 7.30932 16.7232 7.32262 16.6966 7.36253C16.5835 7.50885 16.6367 7.43569 16.5369 7.52215C16.497 7.5554 16.4904 7.56205 16.4505 7.59531L16.0913 7.86799C15.9849 7.9478 15.7122 8.12737 15.5127 8.12737C15.4396 8.12737 15.373 8.09412 15.3331 8.02761C15.3065 7.98106 15.2999 7.9345 15.2999 7.88129C15.2999 7.84139 15.3065 7.78818 15.3198 7.74163C15.3398 7.66847 15.3597 7.66847 15.3664 7.60196C15.2932 7.65517 15.2201 7.73498 15.1536 7.78818L14.9474 7.96775C14.8476 8.05422 14.6348 8.25374 14.4752 8.25374C14.3089 8.25374 14.2823 8.15398 14.2823 8.03426C14.2823 7.86134 14.4486 7.58866 14.5217 7.47559C14.6814 7.22951 14.7412 7.19626 14.8609 7.04329C14.9673 6.91027 14.9806 6.92357 15.0671 6.84376C15.2334 6.69079 15.413 6.62429 15.5593 6.62429ZM15.5127 6.99008C15.4728 6.99008 15.4196 7.01003 15.3531 7.06989C15.2999 7.1098 15.26 7.14305 15.2134 7.18961C15.0605 7.34258 14.5749 7.80148 14.5217 8.00101C14.7213 7.95445 15.3331 7.38913 15.4861 7.23616C15.546 7.17631 15.5859 7.163 15.5859 7.06324C15.5859 7.02334 15.5593 6.99008 15.5127 6.99008ZM16.24 8.24044C16.1735 8.24044 16.1535 8.20053 16.1535 8.14733C16.1535 8.02096 16.2932 7.78818 16.3131 7.74163L16.6989 6.95683C16.7787 6.79721 16.8252 6.61098 16.9782 6.61098C17.078 6.61098 17.1179 6.65754 17.1179 6.7307C17.1179 6.85041 17.0048 7.02999 16.9982 7.06324C17.1777 6.94353 17.3108 6.55778 17.7165 6.55778C17.8827 6.55778 18.0091 6.65089 18.0091 6.78391C18.0091 7.07654 17.6832 7.42904 17.5701 7.92785C17.6632 7.91455 17.9426 7.68177 18.0357 7.59531C18.0756 7.54875 18.315 7.33593 18.3549 7.32262C18.3749 7.31597 18.3948 7.30932 18.4015 7.30932C18.4214 7.30932 18.4281 7.32262 18.4281 7.32927C18.4281 7.37583 18.3084 7.5022 18.3084 7.5022C18.2751 7.54875 18.2552 7.56205 18.2153 7.60861C18.0556 7.76158 17.7364 8.11407 17.5169 8.11407C17.3374 8.11407 17.2908 8.03426 17.2908 7.92785C17.2908 7.54875 17.6699 7.0965 17.6699 6.76395V6.744C17.6699 6.72405 17.6699 6.69079 17.6366 6.69079C17.6233 6.69079 17.61 6.69745 17.5901 6.71075C17.3773 6.83711 16.9915 7.34258 16.925 7.43569L16.3663 8.17393C16.3331 8.21384 16.3065 8.24044 16.24 8.24044ZM18.8889 6.45802C18.8623 6.45802 18.8424 6.43141 18.8424 6.37821C18.8424 6.15208 19.0619 5.85944 19.2015 5.85944C19.2614 5.85944 19.3013 5.91265 19.3013 6.04566C19.3013 6.13878 19.0087 6.45802 18.8889 6.45802ZM18.3369 7.9478C18.2571 7.9478 18.1973 7.90125 18.1973 7.76823C18.1973 7.60196 18.3236 7.33593 18.3768 7.20291C18.4034 7.1497 18.4234 7.1231 18.45 7.07654C18.4832 7.01003 18.603 6.7307 18.6628 6.7307H18.7293C18.7958 6.7307 18.8756 6.73735 18.8756 6.81716C18.8756 6.90362 18.4766 7.5421 18.4234 7.68842C18.4167 7.71502 18.4101 7.73498 18.4101 7.75493C18.4101 7.77488 18.4234 7.78153 18.4566 7.78153C18.5697 7.78153 18.5231 7.74828 18.5697 7.74828C18.583 7.74828 18.603 7.75493 18.6296 7.76158C18.6296 7.84139 18.603 7.85469 18.5364 7.88794C18.4766 7.9212 18.4034 7.9478 18.3369 7.9478ZM18.8975 8.78581C18.7778 8.78581 18.6913 8.7459 18.6913 8.64614C18.6913 8.55303 18.7645 8.41336 18.9374 8.21384C19.0571 8.08082 19.1835 7.95445 19.2699 7.8946C19.0371 7.76823 18.831 7.58201 18.831 7.40908C18.831 6.97678 19.7155 6.53783 20.0148 6.42476C20.0614 6.40481 20.1013 6.39816 20.1412 6.39816C20.2875 6.39816 20.374 6.50457 20.374 6.59768C20.374 6.66419 20.334 6.72405 20.2409 6.73735C20.0215 6.77726 19.1169 7.18296 19.1036 7.44234C19.1036 7.54875 19.3564 7.69507 19.4362 7.75493C19.496 7.72167 19.5226 7.69507 19.5825 7.65517C19.8951 7.45564 20.1678 7.30932 20.5336 7.20291C20.5801 7.18961 20.6134 7.18296 20.6466 7.18296C20.6932 7.18296 20.7198 7.20291 20.7198 7.22286C20.7198 7.24946 20.6799 7.28937 20.5934 7.31597C20.334 7.38913 19.6956 7.74828 19.5958 7.88129C19.6557 7.98771 19.7421 8.04091 19.7421 8.18058C19.7421 8.3668 19.6091 8.48652 19.4827 8.57963C19.3431 8.6927 19.0837 8.78581 18.8975 8.78581ZM18.9307 8.62619C19.077 8.62619 19.516 8.38676 19.516 8.18723C19.516 8.13403 19.4894 8.07417 19.4229 8.00766C19.2367 8.08082 18.8842 8.50647 18.8842 8.59293C18.8842 8.61954 18.9041 8.62619 18.9307 8.62619ZM19.8804 9.09174C19.8272 9.09174 19.8139 9.05849 19.8139 9.01859C19.8139 8.97203 19.8338 8.91217 19.8471 8.87227C19.9935 8.55303 19.9536 8.56633 20.1198 8.3003C20.2395 8.06752 20.3859 7.76823 20.4723 7.57536L20.7783 6.89697C21.0177 6.56443 20.9445 6.63759 21.1973 6.16538C21.43 5.72642 21.7426 5.18771 21.9555 4.7687C22.135 4.41621 22.9132 3.1193 23.2457 3.1193C23.3521 3.1193 23.392 3.17916 23.392 3.25897C23.392 3.45849 23.1593 3.81764 23.126 3.89079C22.8999 4.3364 21.6894 6.10552 21.3569 6.50457L20.9578 6.97678C20.878 7.08319 20.6985 7.43569 20.6718 7.54875C20.7317 7.50885 20.878 7.32927 20.9379 7.25612L21.2106 6.97013C21.3103 6.87037 21.3901 6.78391 21.4966 6.69079C21.603 6.61098 21.7094 6.48462 21.8224 6.48462C21.9222 6.48462 22.0552 6.59768 22.0552 6.77726C22.0552 7.08984 21.7426 7.5421 21.7426 7.72167C21.9488 7.72167 22.3146 7.37583 22.4809 7.24281C22.5806 7.163 22.6471 7.1364 22.6871 7.1364C22.7137 7.1364 22.727 7.1497 22.727 7.17631C22.727 7.21621 22.6871 7.28937 22.6272 7.33593C22.4011 7.52215 21.8291 8.00101 21.603 8.00101C21.5032 8.00101 21.4633 7.94115 21.4633 7.84139C21.4633 7.60861 21.6695 7.18296 21.736 6.99008C21.7759 6.88367 21.7825 6.80386 21.8091 6.69079C21.5697 6.75065 20.9844 7.48224 20.8115 7.70837C20.5787 8.02096 20.3593 8.30695 20.1863 8.65279C20.0999 8.82571 19.9935 9.09174 19.8804 9.09174ZM21.5298 5.85279C21.6229 5.78628 22.727 4.07702 22.9132 3.75113L23.0861 3.41859C22.9198 3.46514 22.1683 4.70885 22.0685 4.88177L21.5298 5.85279ZM32.5571 5.1079C33.8873 5.1079 35.816 5.0946 35.9158 4.92167L36.0089 4.78201C36.6806 3.71787 36.654 3.78438 37.2992 2.70695C37.5053 2.38106 38.0507 1.50315 38.0507 1.19056C38.0507 1.01099 37.9376 0.944477 37.7714 0.937826C37.2726 0.937826 36.2749 1.51645 36.0355 1.66277C34.7386 2.42761 33.3353 3.61811 32.1049 4.51597C32.0384 4.55588 31.4198 5.04804 31.3799 5.1079H32.5571ZM23.2194 13.3483C23.2127 13.3483 23.1994 13.335 23.1794 13.3217C23.1661 13.3084 23.1462 13.2884 23.1329 13.2618C23.1129 13.2352 23.1063 13.202 23.1063 13.1687C23.1063 12.5369 25.1481 10.3554 29.2317 6.61764C29.5908 6.29174 29.8369 6.06562 29.9633 5.93925C30.0697 5.83284 30.1562 5.74638 30.2293 5.67987C30.3889 5.53355 30.4887 5.43379 30.5153 5.38058C26.4118 5.48034 24.2835 5.53355 24.1239 5.5402C23.9908 5.5535 23.8445 5.56015 23.6849 5.56015L17.1072 5.71977C17.0141 5.71977 16.9543 5.69317 16.9144 5.65327V5.62666C16.941 5.60671 16.9543 5.58676 16.9676 5.57346C16.9809 5.56015 17.2536 5.48034 17.7856 5.32072C17.8654 5.32072 17.9452 5.31407 18.0184 5.30742C18.0916 5.30077 18.1714 5.29412 18.2578 5.29412L18.3975 5.28082C18.4507 5.26752 18.5305 5.26087 18.6303 5.26087C18.6768 5.26087 18.8032 5.25422 19.0227 5.23426C19.2422 5.20766 19.4483 5.18106 19.6346 5.1478C19.7742 5.1212 19.8939 5.1079 19.987 5.1079C20.1533 5.1079 20.2863 5.1478 20.3927 5.23426C20.4526 5.27417 20.5058 5.30077 20.5524 5.30077L22.9999 5.30742C23.4787 5.30742 23.9509 5.30742 24.4365 5.29412C26.5514 5.24091 27.7087 5.21431 27.9215 5.20101C28.0745 5.19436 28.5666 5.17441 29.398 5.15445C30.3158 5.14115 30.7946 5.12785 30.8279 5.1212C30.8678 5.11455 30.9277 5.06799 31.0208 4.98818C31.4797 4.60243 32.0517 4.15018 32.7367 3.62476C33.3685 3.1326 33.854 2.7668 34.1932 2.52737L34.6588 2.19483C35.1842 1.80908 35.7761 1.44994 36.4346 1.12405C36.9999 0.844714 37.4455 0.705047 37.7581 0.705047C38.0906 0.705047 38.2635 0.89127 38.2635 1.27037C38.2635 1.56965 38.1771 1.92215 37.9975 2.3345C37.9243 2.50077 37.8578 2.63379 37.798 2.73355L36.6341 4.66894L36.5543 4.80861C36.5077 4.86847 36.4745 4.93498 36.4346 5.00813L39.5804 4.94828C39.6735 4.94828 39.76 4.94163 39.8331 4.93498C39.9129 4.92832 39.9994 4.92167 40.0925 4.91502C40.3319 4.91502 40.6246 4.92832 40.9571 4.94163C41.7486 4.97488 42.3006 5.01479 42.6065 5.06134C43.4711 5.18771 43.9433 5.36063 44.0298 5.59341L44.0564 5.69982C44.0564 5.81954 43.95 5.95255 43.7571 6.09222C43.6308 6.19863 43.5243 6.24519 43.4312 6.24519L43.3448 6.23854C43.3448 6.18533 43.3514 6.14543 43.3647 6.13212C43.3913 6.09222 43.4445 6.05231 43.5177 6.01241L43.6175 5.9459C43.6973 5.89269 43.7305 5.83949 43.7305 5.77963C43.7305 5.57346 43.1386 5.40718 41.9547 5.28082C41.5889 5.24756 41.303 5.22096 41.0835 5.21431C40.8241 5.20766 40.5714 5.20101 40.3186 5.18106L38.6426 5.22096C37.5519 5.24756 36.96 5.26087 36.8602 5.26087C36.7671 5.26087 36.674 5.26087 36.5742 5.26087C36.3813 5.26752 36.2749 5.27417 36.2483 5.29412C36.2284 5.31407 36.2151 5.33403 36.2018 5.35398L36.0222 5.62001C34.9381 7.17631 34.1334 8.48652 33.5946 9.53735C33.1823 10.3488 32.9695 10.9606 32.9695 11.3663C32.9695 11.5659 33.0227 11.7055 33.1357 11.792C33.149 11.8053 33.149 11.8119 33.149 11.8252C33.149 11.8452 33.1357 11.8585 33.0958 11.8585C33.0559 11.8585 33.0094 11.8385 32.9695 11.7986C32.8165 11.659 32.7367 11.4395 32.7367 11.1469C32.7367 10.2357 33.4749 8.63949 34.9514 6.3649L35.6498 5.29412L34.4925 5.32072L33.8341 5.32737C33.5348 5.32737 33.2555 5.33403 32.9894 5.34068C32.7832 5.35398 32.5837 5.36063 32.3908 5.36063C32.2645 5.36063 32.1847 5.35398 32.1448 5.35398C32.1049 5.34733 32.0517 5.34733 31.9918 5.34733L31.1737 5.35398C31.1139 5.35398 31.0673 5.36728 31.0341 5.39388C31.0008 5.41384 30.921 5.48699 30.7946 5.60671C30.6749 5.72642 30.4022 5.98581 29.9832 6.37155C25.4873 10.5283 23.246 12.8295 23.246 13.2685V13.3084C23.246 13.3283 23.2393 13.3416 23.2194 13.3483ZM35.7527 8.10077C35.6995 8.10077 35.6596 8.04756 35.6596 7.97441C35.6596 7.95445 35.6596 7.9345 35.6662 7.91455C35.6862 7.85469 35.7327 7.82809 35.7726 7.82809C35.8391 7.82809 35.9056 7.88129 35.9056 7.9345C35.9056 7.9478 35.9056 7.9611 35.899 7.97441C35.8524 8.06752 35.7992 8.10077 35.7527 8.10077Z" fill="#fff"/>
</svg>
