<svg width="236" height="45" viewBox="0 0 236 45" fill="none" xmlns="http://www.w3.org/2000/svg">
<rect x="29.3997" y="7.62939e-06" width="11.7603" height="44.1011" fill="#1231FF"/>
<rect x="14.7" y="7.62939e-06" width="11.7603" height="22.0505" fill="#1231FF"/>
<rect x="44.0996" y="22.0498" width="11.7603" height="22.0505" fill="#1231FF"/>
<rect width="11.7603" height="33.0758" fill="#1231FF"/>
<rect x="58.7993" y="11.0249" width="11.7603" height="33.0758" fill="#1231FF"/>
<path d="M102.279 25.7904V16.0177C102.279 14.9068 102.004 14.0411 101.454 13.4205C100.903 12.79 100.157 12.4747 99.2166 12.4747C98.6361 12.4747 98.1157 12.6099 97.6553 12.8801C97.1949 13.1403 96.8296 13.5306 96.5594 14.0511C96.2892 14.5615 96.1541 15.172 96.1541 15.8826L94.5477 14.9368C94.5377 13.8159 94.7879 12.83 95.2983 11.9793C95.8188 11.1186 96.5194 10.448 97.4001 9.96764C98.2808 9.48724 99.2617 9.24704 100.343 9.24704C102.134 9.24704 103.505 9.78749 104.456 10.8684C105.417 11.9393 105.897 13.3505 105.897 15.102V25.8446C105.74 25.8163 103.053 25.7553 102.279 25.7904ZM82.7778 28.6478V9.65238H85.9755V14.6816H86.4259V27.6209C85.6116 27.8025 83.6949 28.291 82.7778 28.6478ZM92.551 26.5018V16.0628C92.551 14.9318 92.2758 14.0511 91.7253 13.4205C91.1749 12.79 90.4243 12.4747 89.4735 12.4747C88.5527 12.4747 87.8121 12.79 87.2516 13.4205C86.7011 14.0511 86.4259 14.8718 86.4259 15.8826L84.8045 14.8017C84.8045 13.7508 85.0648 12.805 85.5852 11.9643C86.1056 11.1236 86.8062 10.4631 87.687 9.98266C88.5777 9.49224 89.5735 9.24704 90.6745 9.24704C91.8855 9.24704 92.8963 9.50726 93.707 10.0277C94.5277 10.5381 95.1382 11.2387 95.5385 12.1295C95.9489 13.0102 96.1541 14.006 96.1541 15.117V26.1047C95.65 26.128 93.0592 26.4139 92.551 26.5018Z" fill="black"/>
<path d="M115.209 26.3164C113.587 26.3164 112.171 25.9511 110.96 25.2205C109.749 24.4898 108.808 23.484 108.138 22.2029C107.477 20.9118 107.147 19.4306 107.147 17.7592C107.147 16.0578 107.487 14.5665 108.168 13.2854C108.848 12.0044 109.794 11.0035 111.005 10.2829C112.216 9.5623 113.617 9.202 115.209 9.202C116.84 9.202 118.261 9.56731 119.472 10.2979C120.683 11.0285 121.624 12.0394 122.295 13.3305C122.965 14.6115 123.301 16.0878 123.301 17.7592C123.301 19.4406 122.96 20.9268 122.28 22.2179C121.609 23.499 120.668 24.5049 119.457 25.2355C118.246 25.9561 116.83 26.3164 115.209 26.3164ZM115.209 22.9235C116.65 22.9235 117.721 22.4431 118.422 21.4823C119.122 20.5215 119.472 19.2805 119.472 17.7592C119.472 16.1879 119.117 14.9368 118.406 14.006C117.696 13.0652 116.63 12.5948 115.209 12.5948C114.238 12.5948 113.437 12.815 112.807 13.2554C112.186 13.6858 111.726 14.2913 111.426 15.0719C111.125 15.8426 110.975 16.7383 110.975 17.7592C110.975 19.3305 111.331 20.5866 112.041 21.5273C112.762 22.4581 113.818 22.9235 115.209 22.9235Z" fill="black"/>
<path d="M131.908 26.3164C130.417 26.3164 129.115 25.9411 128.004 25.1904C126.894 24.4398 126.033 23.4189 125.422 22.1279C124.812 20.8368 124.507 19.3805 124.507 17.7592C124.507 16.1178 124.812 14.6566 125.422 13.3755C126.043 12.0844 126.919 11.0686 128.05 10.3279C129.18 9.57732 130.512 9.202 132.043 9.202C133.584 9.202 134.875 9.57732 135.916 10.3279C136.967 11.0686 137.763 12.0844 138.303 13.3755C138.844 14.6666 139.114 16.1278 139.114 17.7592C139.114 19.3705 138.844 20.8268 138.303 22.1279C137.763 23.4189 136.957 24.4398 135.886 25.1904C134.815 25.9411 133.489 26.3164 131.908 26.3164ZM132.463 23.0736C133.434 23.0736 134.215 22.8535 134.805 22.4131C135.406 21.9627 135.841 21.3372 136.111 20.5365C136.392 19.7358 136.532 18.8101 136.532 17.7592C136.532 16.6983 136.392 15.7725 136.111 14.9819C135.841 14.1812 135.416 13.5607 134.835 13.1203C134.255 12.6699 133.504 12.4447 132.583 12.4447C131.613 12.4447 130.812 12.6849 130.181 13.1653C129.551 13.6357 129.085 14.2763 128.785 15.0869C128.485 15.8876 128.335 16.7784 128.335 17.7592C128.335 18.75 128.48 19.6508 128.77 20.4615C129.07 21.2621 129.526 21.8977 130.136 22.3681C130.747 22.8385 131.522 23.0736 132.463 23.0736ZM136.532 25.866V14.4864H136.081V4.24784H139.729V25.866H136.532Z" fill="black"/>
<path d="M147.617 26.3314C146.416 26.3314 145.425 26.1312 144.644 25.7309C143.863 25.3305 143.243 24.8201 142.783 24.1996C142.322 23.5791 141.982 22.9185 141.762 22.2179C141.541 21.5173 141.396 20.8568 141.326 20.2363C141.266 19.6057 141.236 19.0953 141.236 18.705V9.65238H144.899V17.4589C144.899 17.9594 144.934 18.5248 145.004 19.1554C145.074 19.7759 145.235 20.3764 145.485 20.9569C145.745 21.5273 146.125 21.9977 146.626 22.3681C147.136 22.7384 147.822 22.9235 148.682 22.9235C149.143 22.9235 149.598 22.8485 150.049 22.6983C150.499 22.5482 150.904 22.293 151.265 21.9327C151.635 21.5624 151.93 21.057 152.15 20.4164C152.371 19.7759 152.481 18.9652 152.481 17.9844L154.627 18.9001C154.627 20.2813 154.357 21.5324 153.817 22.6533C153.286 23.7742 152.501 24.67 151.46 25.3406C150.419 26.0011 149.138 26.3314 147.617 26.3314ZM152.916 25.866V20.8368H152.481V9.65238H156.114V25.866H152.916Z" fill="black"/>
<path d="M157.629 25.866V3.79746H161.247V25.866H157.629Z" fill="black"/>
<path d="M171.014 26.3164C169.372 26.3164 167.931 25.9611 166.69 25.2505C165.449 24.5399 164.478 23.5541 163.778 22.293C163.087 21.0319 162.742 19.5807 162.742 17.9393C162.742 16.1678 163.082 14.6316 163.763 13.3305C164.443 12.0194 165.389 11.0035 166.6 10.2829C167.811 9.5623 169.212 9.202 170.804 9.202C172.485 9.202 173.911 9.59733 175.082 10.388C176.263 11.1687 177.139 12.2746 177.709 13.7058C178.28 15.137 178.495 16.8234 178.355 18.765H174.767V17.4439C174.757 15.6824 174.447 14.3964 173.836 13.5857C173.226 12.775 172.265 12.3697 170.954 12.3697C169.472 12.3697 168.371 12.83 167.651 13.7508C166.93 14.6616 166.57 15.9977 166.57 17.7592C166.57 19.4006 166.93 20.6716 167.651 21.5724C168.371 22.4731 169.422 22.9235 170.804 22.9235C171.694 22.9235 172.46 22.7284 173.1 22.338C173.751 21.9377 174.251 21.3622 174.602 20.6116L178.175 21.6925C177.554 23.1537 176.593 24.2897 175.292 25.1003C174.001 25.911 172.575 26.3164 171.014 26.3164ZM165.429 18.765V16.0327H176.583V18.765H165.429Z" fill="black"/>
<path d="M184.145 23.5438L180.843 12.7347H182.024L184.736 21.6122L187.448 12.7347H188.559L191.281 21.6122L194.004 12.7347H195.165L191.862 23.5438H190.781L188.009 14.5463L185.226 23.5438H184.145ZM196.506 10.5529V9.08166H197.657V10.5529H196.506ZM196.506 23.5438V12.7347H197.657V23.5438H196.506ZM207.915 23.5438V17.9191C207.915 17.2385 207.845 16.6313 207.705 16.0976C207.571 15.5638 207.364 15.1101 207.084 14.7364C206.81 14.3628 206.463 14.0792 206.043 13.8857C205.629 13.6922 205.139 13.5955 204.572 13.5955C203.985 13.5955 203.474 13.6989 203.041 13.9057C202.614 14.1059 202.26 14.3895 201.98 14.7564C201.706 15.1234 201.499 15.5604 201.359 16.0675C201.226 16.568 201.159 17.1151 201.159 17.7089L200.248 17.5988C200.248 16.4312 200.445 15.4704 200.839 14.7164C201.239 13.9558 201.776 13.3953 202.45 13.035C203.124 12.668 203.881 12.4845 204.722 12.4845C205.316 12.4845 205.846 12.5713 206.313 12.7447C206.787 12.9182 207.197 13.1651 207.544 13.4854C207.891 13.799 208.178 14.1726 208.405 14.6063C208.632 15.0333 208.799 15.5037 208.906 16.0175C209.019 16.5313 209.076 17.0684 209.076 17.6288V23.5438H207.915ZM199.998 23.5438V12.7347H201.049V15.1668H201.159V23.5438H199.998ZM215.204 28.6481C214.671 28.6481 214.137 28.568 213.603 28.4079C213.076 28.2544 212.582 28.0009 212.122 27.6473C211.661 27.3003 211.271 26.8366 210.951 26.2561L211.992 25.6356C212.319 26.3028 212.782 26.7799 213.383 27.0668C213.983 27.3537 214.594 27.4971 215.214 27.4971C216.088 27.4971 216.779 27.3337 217.286 27.0067C217.8 26.6864 218.167 26.2027 218.387 25.5555C218.607 24.915 218.717 24.1176 218.717 23.1635V20.3311H218.837V12.7347H219.888V23.1635C219.888 23.4838 219.882 23.7907 219.868 24.0843C219.855 24.3778 219.825 24.6714 219.778 24.965C219.658 25.799 219.411 26.4863 219.038 27.0267C218.664 27.5739 218.157 27.9809 217.516 28.2478C216.882 28.5146 216.112 28.6481 215.204 28.6481ZM215.154 23.8441C214.133 23.8441 213.269 23.5939 212.562 23.0934C211.862 22.5863 211.324 21.9024 210.951 21.0417C210.584 20.1743 210.4 19.2002 210.4 18.1193C210.4 17.0517 210.584 16.0875 210.951 15.2268C211.318 14.3661 211.845 13.6855 212.532 13.1851C213.226 12.6847 214.063 12.4345 215.044 12.4345C216.052 12.4345 216.902 12.6814 217.596 13.1751C218.29 13.6688 218.814 14.3461 219.168 15.2068C219.521 16.0609 219.698 17.0317 219.698 18.1193C219.698 19.2002 219.521 20.171 219.168 21.0317C218.814 21.8924 218.3 22.5763 217.626 23.0834C216.952 23.5905 216.128 23.8441 215.154 23.8441ZM215.224 22.7431C216.032 22.7431 216.702 22.543 217.236 22.1426C217.776 21.7356 218.177 21.1852 218.437 20.4912C218.704 19.7907 218.837 19 218.837 18.1193C218.837 17.2318 218.704 16.4412 218.437 15.7473C218.17 15.0533 217.77 14.5129 217.236 14.1259C216.702 13.7322 216.038 13.5354 215.244 13.5354C214.424 13.5354 213.746 13.7389 213.213 14.1459C212.679 14.5463 212.282 15.0934 212.022 15.7873C211.761 16.4745 211.631 17.2519 211.631 18.1193C211.631 18.9933 211.765 19.7806 212.032 20.4812C212.305 21.1752 212.706 21.7256 213.233 22.1326C213.766 22.5396 214.43 22.7431 215.224 22.7431ZM226.016 23.824C224.769 23.824 223.738 23.5605 222.924 23.0334C222.116 22.5063 221.616 21.7723 221.423 20.8315L222.604 20.6314C222.77 21.2719 223.164 21.7823 223.785 22.1626C224.405 22.543 225.166 22.7331 226.066 22.7331C226.961 22.7331 227.671 22.543 228.198 22.1626C228.725 21.7823 228.989 21.2619 228.989 20.6013C228.989 20.241 228.906 19.9475 228.739 19.7206C228.579 19.4871 228.258 19.2736 227.778 19.0801C227.297 18.8866 226.584 18.6597 225.636 18.3995C224.635 18.1326 223.851 17.8657 223.284 17.5988C222.724 17.3319 222.327 17.0283 222.093 16.6881C221.866 16.3478 221.753 15.9307 221.753 15.437C221.753 14.8432 221.923 14.3227 222.263 13.8757C222.604 13.422 223.077 13.0683 223.684 12.8148C224.298 12.5613 225.006 12.4345 225.806 12.4345C226.607 12.4345 227.328 12.5679 227.968 12.8348C228.609 13.095 229.126 13.462 229.519 13.9357C229.913 14.4028 230.14 14.9466 230.2 15.5671L229.019 15.7873C228.906 15.0934 228.555 14.5463 227.968 14.1459C227.381 13.7389 226.647 13.5321 225.766 13.5254C224.932 13.5121 224.252 13.6789 223.724 14.0258C223.197 14.3661 222.934 14.8165 222.934 15.377C222.934 15.6972 223.024 15.9708 223.204 16.1976C223.391 16.4178 223.718 16.6213 224.185 16.8082C224.652 16.995 225.312 17.1951 226.167 17.4087C227.207 17.6755 228.018 17.9491 228.599 18.2293C229.186 18.5096 229.599 18.8399 229.84 19.2202C230.08 19.5938 230.2 20.0575 230.2 20.6113C230.2 21.6122 229.826 22.3995 229.079 22.9733C228.338 23.5405 227.318 23.824 226.016 23.824ZM231.995 23.5438V22.0926H233.447V23.5438H231.995Z" fill="black"/>
<path d="M97.5627 36.7908H95.119V39.418H94.5185V33.4463H98.0381V33.9968H95.119V36.2487H97.5627V36.7908ZM100.78 35.3312V35.8483H100.463C99.7203 35.8483 99.2449 36.3488 99.2449 37.1161V39.418H98.6694V35.3813H99.2116L99.2533 36.0068C99.4117 35.5731 99.8371 35.2895 100.404 35.2895C100.529 35.2895 100.638 35.2979 100.78 35.3312ZM101.106 37.3996C101.106 36.1653 101.974 35.2729 103.158 35.2729C104.342 35.2729 105.21 36.1653 105.21 37.3996C105.21 38.6257 104.342 39.5181 103.158 39.5181C101.974 39.5181 101.106 38.6257 101.106 37.3996ZM101.69 37.3913C101.69 38.3421 102.291 39.001 103.158 39.001C104.017 39.001 104.626 38.3421 104.626 37.3913C104.626 36.4572 104.017 35.79 103.158 35.79C102.291 35.79 101.69 36.4572 101.69 37.3913ZM106.706 39.418H106.13V35.3813H106.631L106.697 35.9568C106.897 35.5314 107.348 35.2729 107.915 35.2729C108.549 35.2729 109.024 35.6065 109.216 36.1319C109.4 35.6065 109.892 35.2729 110.542 35.2729C111.418 35.2729 111.993 35.84 111.993 36.7741V39.418H111.435V36.8909C111.435 36.1986 111.051 35.79 110.434 35.79C109.758 35.79 109.358 36.2987 109.358 36.9242V39.418H108.791V36.8825C108.791 36.1986 108.399 35.7983 107.79 35.7983C107.114 35.7983 106.706 36.2987 106.706 36.9159V39.418ZM117.599 37.1077C117.549 37.0132 117.502 36.9409 117.457 36.8909C117.413 36.8408 117.352 36.8047 117.274 36.7825C117.202 36.7547 117.091 36.7352 116.94 36.7241L116.615 38.4255C116.598 38.52 116.582 38.6034 116.565 38.6757C116.554 38.748 116.548 38.8147 116.548 38.8759C116.548 38.9871 116.59 39.0566 116.673 39.0844C116.762 39.1122 116.952 39.1372 117.241 39.1594C117.235 39.1984 117.227 39.2429 117.216 39.2929C117.21 39.3429 117.202 39.3874 117.191 39.4263C117.018 39.4208 116.824 39.418 116.607 39.418C116.395 39.4124 116.195 39.4097 116.006 39.4097C115.817 39.4097 115.62 39.4124 115.414 39.418C115.214 39.418 115 39.4208 114.772 39.4263C114.772 39.3874 114.775 39.3429 114.78 39.2929C114.786 39.2429 114.797 39.1984 114.814 39.1594C115.053 39.1316 115.225 39.1066 115.331 39.0844C115.442 39.0566 115.517 39.0038 115.556 38.9259C115.6 38.8425 115.639 38.7091 115.673 38.5256L116.44 34.5723C116.462 34.4722 116.479 34.3888 116.49 34.3221C116.501 34.2498 116.507 34.1886 116.507 34.1386C116.507 34.0107 116.457 33.9356 116.357 33.9134C116.262 33.8856 116.07 33.8606 115.781 33.8383C115.787 33.7549 115.803 33.6659 115.831 33.5714C115.992 33.5714 116.176 33.5742 116.382 33.5798C116.587 33.5853 116.754 33.5881 116.882 33.5881C116.971 33.5881 117.099 33.5881 117.266 33.5881C117.432 33.5825 117.596 33.5798 117.758 33.5798C117.919 33.5742 118.039 33.5714 118.116 33.5714C118.711 33.5714 119.162 33.6771 119.468 33.8884C119.779 34.0996 119.935 34.4277 119.935 34.8725C119.935 35.3229 119.782 35.6954 119.476 35.9901C119.17 36.2793 118.775 36.4933 118.292 36.6323V36.6573C118.336 36.7074 118.378 36.763 118.417 36.8242C118.461 36.8798 118.506 36.9465 118.55 37.0243C118.6 37.1077 118.661 37.2245 118.734 37.3746C118.811 37.5247 118.892 37.686 118.975 37.8584C119.059 38.0252 119.137 38.1836 119.209 38.3338C119.331 38.5784 119.437 38.7591 119.526 38.8759C119.615 38.9871 119.715 39.0594 119.826 39.0927C119.937 39.1205 120.085 39.1428 120.268 39.1594C120.268 39.2484 120.249 39.3374 120.21 39.4263C120.121 39.4263 120.004 39.4236 119.86 39.418C119.715 39.418 119.573 39.418 119.434 39.418C119.295 39.4124 119.184 39.4097 119.101 39.4097C119.012 39.4097 118.939 39.4124 118.884 39.418C118.834 39.418 118.764 39.418 118.675 39.418C118.586 39.19 118.483 38.9454 118.367 38.684C118.255 38.4172 118.133 38.1475 118 37.875C117.872 37.6026 117.738 37.3468 117.599 37.1077ZM117.007 36.3821C117.079 36.3932 117.154 36.4044 117.232 36.4155C117.316 36.421 117.396 36.4238 117.474 36.4238C117.824 36.4238 118.111 36.3571 118.333 36.2237C118.556 36.0902 118.72 35.9123 118.825 35.6899C118.931 35.4675 118.984 35.2228 118.984 34.9559C118.984 34.7891 118.956 34.6279 118.9 34.4722C118.85 34.3109 118.753 34.1775 118.608 34.0718C118.469 33.9662 118.266 33.9134 118 33.9134C117.95 33.9134 117.872 33.9162 117.766 33.9217C117.666 33.9217 117.571 33.9245 117.483 33.9301L117.007 36.3821ZM121.547 39.5097C121.374 39.5097 121.21 39.4653 121.054 39.3763C120.899 39.2818 120.774 39.1372 120.679 38.9426C120.585 38.748 120.537 38.4978 120.537 38.192C120.537 37.8139 120.61 37.458 120.754 37.1244C120.899 36.7908 121.088 36.4961 121.321 36.2403C121.555 35.9846 121.811 35.7844 122.089 35.6398C122.372 35.4897 122.65 35.4146 122.923 35.4146C123.028 35.4146 123.148 35.4313 123.281 35.4647C123.415 35.4925 123.554 35.5425 123.698 35.6148C123.815 35.5981 123.935 35.5814 124.057 35.5648C124.185 35.5481 124.316 35.5286 124.449 35.5064L124.474 35.5397C124.407 35.7733 124.349 35.9957 124.299 36.207C124.249 36.4127 124.199 36.624 124.149 36.8408L123.765 38.4922C123.76 38.5311 123.748 38.5812 123.732 38.6423C123.715 38.7035 123.707 38.7619 123.707 38.8175C123.707 38.8675 123.718 38.9092 123.74 38.9426C123.762 38.976 123.801 38.9926 123.857 38.9926C123.951 38.9926 124.071 38.9426 124.215 38.8425C124.36 38.7424 124.491 38.6201 124.607 38.4755C124.68 38.5256 124.744 38.5812 124.799 38.6423C124.61 38.8926 124.407 39.1011 124.19 39.2679C123.974 39.4347 123.729 39.5181 123.456 39.5181C123.251 39.5181 123.103 39.468 123.014 39.368C122.925 39.2623 122.881 39.1316 122.881 38.976C122.881 38.8258 122.912 38.6535 122.973 38.4589H122.931C122.725 38.8147 122.503 39.0788 122.264 39.2512C122.03 39.4236 121.791 39.5097 121.547 39.5097ZM123.481 36.1402C123.365 36.0346 123.242 35.9512 123.115 35.89C122.987 35.8233 122.856 35.79 122.723 35.79C122.517 35.79 122.333 35.865 122.172 36.0151C122.011 36.1653 121.875 36.3599 121.763 36.599C121.652 36.8325 121.569 37.0855 121.513 37.3579C121.458 37.6248 121.43 37.8806 121.43 38.1252C121.43 38.4589 121.474 38.6868 121.563 38.8092C121.652 38.9259 121.758 38.9843 121.88 38.9843C122.025 38.9843 122.183 38.9148 122.356 38.7758C122.533 38.6312 122.706 38.4033 122.873 38.0919C123.045 37.775 123.192 37.3579 123.315 36.8408L123.481 36.1402ZM126.007 39.418C126.029 39.2178 126.043 39.0204 126.048 38.8258C126.054 38.6257 126.057 38.4394 126.057 38.267C126.057 37.8055 126.04 37.4052 126.007 37.066C125.973 36.7213 125.918 36.4544 125.84 36.2654C125.768 36.0707 125.665 35.9734 125.531 35.9734C125.465 35.9734 125.378 36.004 125.273 36.0652C125.167 36.1208 125.05 36.2153 124.923 36.3488C124.884 36.321 124.85 36.2932 124.822 36.2654C124.789 36.2376 124.759 36.207 124.731 36.1736C124.931 35.929 125.137 35.7483 125.348 35.6315C125.559 35.5092 125.759 35.448 125.948 35.448C126.288 35.448 126.518 35.6426 126.641 36.0318C126.763 36.421 126.824 36.952 126.824 37.6248C126.824 37.7694 126.821 37.9223 126.816 38.0835C126.81 38.2448 126.802 38.3977 126.791 38.5423C127.063 38.192 127.297 37.8361 127.491 37.4747C127.692 37.1077 127.856 36.7602 127.983 36.4322C128.117 36.1041 128.214 35.815 128.275 35.5648C128.414 35.537 128.545 35.5231 128.667 35.5231C128.751 35.8122 128.82 36.1319 128.876 36.4822C128.931 36.8325 128.973 37.1995 129.001 37.5831C129.029 37.9612 129.043 38.3338 129.043 38.7007C129.293 38.4561 129.504 38.2031 129.677 37.9418C129.849 37.6749 129.988 37.4219 130.094 37.1828C130.199 36.9381 130.271 36.7324 130.31 36.5656C130.183 36.4878 130.077 36.3905 129.993 36.2737C129.916 36.1514 129.877 36.0263 129.877 35.8984C129.877 35.7705 129.916 35.6593 129.993 35.5648C130.077 35.4647 130.188 35.4146 130.327 35.4146C130.455 35.4146 130.575 35.4647 130.686 35.5648C130.797 35.6648 130.853 35.8289 130.853 36.0568C130.853 36.3015 130.772 36.6156 130.611 36.9993C130.455 37.3774 130.219 37.7861 129.902 38.2253C129.585 38.659 129.182 39.0816 128.692 39.4931C128.648 39.4931 128.584 39.4819 128.501 39.4597C128.417 39.443 128.353 39.4236 128.309 39.4013C128.314 39.3402 128.317 39.2762 128.317 39.2095C128.317 39.1372 128.317 39.0649 128.317 38.9926C128.317 38.7702 128.312 38.5339 128.3 38.2837C128.289 38.0335 128.273 37.7916 128.25 37.5581C128.228 37.3246 128.203 37.1188 128.175 36.9409C127.986 37.3579 127.744 37.7889 127.45 38.2337C127.161 38.6729 126.805 39.0983 126.382 39.5097C126.343 39.5097 126.282 39.4986 126.199 39.4764C126.115 39.4597 126.051 39.4402 126.007 39.418ZM135.721 39.418L133.436 33.4463H134.078L135.671 37.5998C135.796 37.9251 135.913 38.2504 136.046 38.6674C136.172 38.2337 136.322 37.8167 136.413 37.5915L137.998 33.4463H138.615L136.347 39.418H135.721ZM139.58 34.272C139.346 34.272 139.154 34.0802 139.154 33.8467C139.154 33.6131 139.346 33.413 139.58 33.413C139.813 33.413 140.013 33.6131 140.013 33.8467C140.013 34.0802 139.813 34.272 139.58 34.272ZM139.296 39.418V35.3813H139.871V39.418H139.296ZM140.73 38.2837H141.28C141.28 38.7508 141.63 39.0427 142.198 39.0427C142.823 39.0427 143.19 38.7758 143.19 38.3421C143.19 38.0085 143.023 37.8167 142.548 37.6999L141.856 37.5247C141.155 37.3496 140.813 36.9826 140.813 36.4322C140.813 35.7232 141.405 35.2729 142.273 35.2729C143.123 35.2729 143.674 35.7399 143.699 36.4905H143.14C143.123 36.0235 142.798 35.7483 142.256 35.7483C141.689 35.7483 141.372 35.9901 141.372 36.4238C141.372 36.7324 141.589 36.9493 142.031 37.0577L142.723 37.2328C143.424 37.408 143.74 37.7333 143.74 38.3171C143.74 39.0427 143.123 39.5181 142.206 39.5181C141.297 39.5181 140.73 39.0343 140.73 38.2837ZM147.524 35.3813H148.099V39.418H147.599L147.524 38.7341C147.298 39.2012 146.74 39.5181 146.106 39.5181C145.155 39.5181 144.638 38.8675 144.638 37.8834V35.3729H145.222V37.6999C145.222 38.659 145.647 39.001 146.289 39.001C147.065 39.001 147.524 38.4839 147.524 37.5247V35.3813ZM150.457 39.5181C149.598 39.5181 149.089 39.0343 149.089 38.3254C149.089 37.5831 149.657 37.1161 150.599 37.041L151.933 36.9326V36.7991C151.933 36.0068 151.458 35.7566 150.866 35.7566C150.165 35.7566 149.748 36.0735 149.748 36.6156H149.223C149.223 35.7983 149.89 35.2729 150.883 35.2729C151.817 35.2729 152.501 35.7399 152.501 36.8075V39.418H152.017L151.942 38.7091C151.692 39.2178 151.141 39.5181 150.457 39.5181ZM150.591 39.051C151.441 39.051 151.933 38.4589 151.933 37.5831V37.3663L150.741 37.458C149.982 37.5247 149.673 37.8584 149.673 38.3087C149.673 38.8008 150.04 39.051 150.591 39.051ZM154.256 39.418H153.68V33.3379H154.256V39.418ZM155.138 38.2837H155.688C155.688 38.7508 156.039 39.0427 156.606 39.0427C157.231 39.0427 157.598 38.7758 157.598 38.3421C157.598 38.0085 157.431 37.8167 156.956 37.6999L156.264 37.5247C155.563 37.3496 155.221 36.9826 155.221 36.4322C155.221 35.7232 155.813 35.2729 156.681 35.2729C157.532 35.2729 158.082 35.7399 158.107 36.4905H157.548C157.532 36.0235 157.206 35.7483 156.664 35.7483C156.097 35.7483 155.78 35.9901 155.78 36.4238C155.78 36.7324 155.997 36.9493 156.439 37.0577L157.131 37.2328C157.832 37.408 158.149 37.7333 158.149 38.3171C158.149 39.0427 157.532 39.5181 156.614 39.5181C155.705 39.5181 155.138 39.0343 155.138 38.2837ZM162.335 39.418H161.768V35.865H160.959V35.3813H161.768V34.1052H162.335V35.3813H163.144V35.865H162.335V39.418ZM163.569 37.3996C163.569 36.1653 164.437 35.2729 165.621 35.2729C166.805 35.2729 167.673 36.1653 167.673 37.3996C167.673 38.6257 166.805 39.5181 165.621 39.5181C164.437 39.5181 163.569 38.6257 163.569 37.3996ZM164.153 37.3913C164.153 38.3421 164.754 39.001 165.621 39.001C166.48 39.001 167.089 38.3421 167.089 37.3913C167.089 36.4572 166.48 35.79 165.621 35.79C164.754 35.79 164.153 36.4572 164.153 37.3913ZM171.632 39.418H171.031V33.4463H173.258C174.468 33.4463 175.201 34.1135 175.201 35.1728C175.201 36.0318 174.751 36.6323 173.984 36.8408L175.26 39.418H174.593L173.375 36.9409H171.632V39.418ZM171.632 33.9884V36.3988H173.275C174.101 36.3988 174.584 35.9484 174.584 35.1894C174.584 34.4138 174.076 33.9884 173.258 33.9884H171.632ZM177.641 39.5181C176.457 39.5181 175.664 38.6674 175.664 37.3996C175.664 36.1402 176.448 35.2729 177.599 35.2729C178.692 35.2729 179.434 36.0485 179.434 37.1911V37.4747H176.223C176.265 38.4589 176.782 39.026 177.649 39.026C178.308 39.026 178.734 38.7424 178.884 38.2087H179.434C179.217 39.0594 178.592 39.5181 177.641 39.5181ZM177.599 35.7649C176.84 35.7649 176.34 36.2654 176.24 37.0577H178.859C178.859 36.282 178.358 35.7649 177.599 35.7649ZM180.93 39.418H180.354V35.3813H180.855L180.921 35.9568C181.122 35.5314 181.572 35.2729 182.139 35.2729C182.773 35.2729 183.248 35.6065 183.44 36.1319C183.624 35.6065 184.116 35.2729 184.766 35.2729C185.642 35.2729 186.217 35.84 186.217 36.7741V39.418H185.659V36.8909C185.659 36.1986 185.275 35.79 184.658 35.79C183.982 35.79 183.582 36.2987 183.582 36.9242V39.418H183.015V36.8825C183.015 36.1986 182.623 35.7983 182.014 35.7983C181.338 35.7983 180.93 36.2987 180.93 36.9159V39.418ZM188.534 39.5181C187.675 39.5181 187.167 39.0343 187.167 38.3254C187.167 37.5831 187.734 37.1161 188.676 37.041L190.011 36.9326V36.7991C190.011 36.0068 189.535 35.7566 188.943 35.7566C188.243 35.7566 187.825 36.0735 187.825 36.6156H187.3C187.3 35.7983 187.967 35.2729 188.96 35.2729C189.894 35.2729 190.578 35.7399 190.578 36.8075V39.418H190.094L190.019 38.7091C189.769 39.2178 189.218 39.5181 188.534 39.5181ZM188.668 39.051C189.519 39.051 190.011 38.4589 190.011 37.5831V37.3663L188.818 37.458C188.059 37.5247 187.75 37.8584 187.75 38.3087C187.75 38.8008 188.117 39.051 188.668 39.051ZM193.843 35.3312V35.8483H193.526C192.783 35.8483 192.308 36.3488 192.308 37.1161V39.418H191.733V35.3813H192.275L192.316 36.0068C192.475 35.5731 192.9 35.2895 193.467 35.2895C193.593 35.2895 193.701 35.2979 193.843 35.3312ZM195.208 39.418H194.633V33.3379H195.208V37.4664L197.21 35.3813H197.936L196.384 36.991L197.944 39.418H197.277L195.992 37.3996L195.208 38.2087V39.418ZM199.725 39.5181C198.866 39.5181 198.358 39.0343 198.358 38.3254C198.358 37.5831 198.925 37.1161 199.867 37.041L201.202 36.9326V36.7991C201.202 36.0068 200.726 35.7566 200.134 35.7566C199.434 35.7566 199.017 36.0735 199.017 36.6156H198.491C198.491 35.7983 199.158 35.2729 200.151 35.2729C201.085 35.2729 201.769 35.7399 201.769 36.8075V39.418H201.285L201.21 38.7091C200.96 39.2178 200.409 39.5181 199.725 39.5181ZM199.859 39.051C200.71 39.051 201.202 38.4589 201.202 37.5831V37.3663L200.009 37.458C199.25 37.5247 198.941 37.8584 198.941 38.3087C198.941 38.8008 199.308 39.051 199.859 39.051ZM203.424 39.418H202.924V33.3379H203.499V36.1653C203.783 35.5731 204.333 35.2729 205.017 35.2729C206.193 35.2729 206.877 36.1903 206.877 37.408C206.877 38.6173 206.176 39.5181 205 39.5181C204.325 39.5181 203.766 39.2178 203.482 38.5923L203.424 39.418ZM203.507 37.3913C203.507 38.3254 204.025 38.9926 204.909 38.9926C205.784 38.9926 206.293 38.3254 206.293 37.3913C206.293 36.4655 205.784 35.79 204.909 35.79C204.025 35.79 203.507 36.4655 203.507 37.3913ZM208.395 39.418H207.819V33.3379H208.395V39.418ZM211.312 39.5181C210.127 39.5181 209.335 38.6674 209.335 37.3996C209.335 36.1402 210.119 35.2729 211.27 35.2729C212.363 35.2729 213.105 36.0485 213.105 37.1911V37.4747H209.894C209.936 38.4589 210.453 39.026 211.32 39.026C211.979 39.026 212.404 38.7424 212.555 38.2087H213.105C212.888 39.0594 212.263 39.5181 211.312 39.5181ZM211.27 35.7649C210.511 35.7649 210.011 36.2654 209.911 37.0577H212.53C212.53 36.282 212.029 35.7649 211.27 35.7649ZM214.265 39.5097C213.981 39.5097 213.739 39.2762 213.739 39.001C213.739 38.7174 213.981 38.4755 214.265 38.4755C214.548 38.4755 214.79 38.7174 214.79 39.001C214.79 39.2762 214.548 39.5097 214.265 39.5097Z" fill="#686868"/>
</svg>
