<svg width="177" height="34" viewBox="0 0 177 34" fill="none" xmlns="http://www.w3.org/2000/svg">
<rect x="22.0312" width="8.81281" height="33.048" fill="#1231FF"/>
<rect x="11.0156" width="8.81281" height="16.524" fill="#1231FF"/>
<rect x="33.0469" y="16.5234" width="8.81281" height="16.524" fill="#1231FF"/>
<rect width="8.81281" height="24.786" fill="#1231FF"/>
<rect x="44.0625" y="8.26172" width="8.81281" height="24.786" fill="#1231FF"/>
<path d="M76.645 19.3266V12.0032C76.645 11.1707 76.4387 10.522 76.0262 10.057C75.6137 9.58445 75.055 9.3482 74.35 9.3482C73.915 9.3482 73.525 9.44945 73.18 9.65195C72.835 9.84695 72.5612 10.1395 72.3587 10.5295C72.1562 10.912 72.055 11.3695 72.055 11.902L70.8512 11.1932C70.8438 10.3532 71.0312 9.61445 71.4137 8.97695C71.8038 8.33195 72.3287 7.82945 72.9888 7.46945C73.6488 7.10945 74.3837 6.92945 75.1937 6.92945C76.5362 6.92945 77.5637 7.33445 78.2762 8.14445C78.9963 8.94695 79.3563 10.0045 79.3563 11.317V19.3672C79.2382 19.346 77.2252 19.3002 76.645 19.3266ZM62.0312 21.4678V7.2332H64.4275V11.002H64.765V20.6982C64.1548 20.8343 62.7185 21.2005 62.0312 21.4678ZM69.355 19.8597V12.037C69.355 11.1895 69.1488 10.5295 68.7363 10.057C68.3238 9.58445 67.7613 9.3482 67.0488 9.3482C66.3588 9.3482 65.8038 9.58445 65.3838 10.057C64.9713 10.5295 64.765 11.1445 64.765 11.902L63.55 11.092C63.55 10.3045 63.745 9.5957 64.135 8.9657C64.525 8.3357 65.05 7.8407 65.71 7.4807C66.3775 7.1132 67.1238 6.92945 67.9488 6.92945C68.8563 6.92945 69.6137 7.12445 70.2212 7.51445C70.8362 7.89695 71.2937 8.42195 71.5937 9.08945C71.9012 9.74945 72.055 10.4957 72.055 11.3282V19.5621C71.6772 19.5796 69.7358 19.7938 69.355 19.8597Z" fill="black"/>
<path d="M86.3341 19.7207C85.1191 19.7207 84.0578 19.447 83.1503 18.8995C82.2428 18.352 81.5378 17.5982 81.0353 16.6382C80.5403 15.6707 80.2928 14.5607 80.2928 13.3082C80.2928 12.0332 80.5478 10.9157 81.0578 9.9557C81.5678 8.9957 82.2766 8.2457 83.1841 7.7057C84.0916 7.1657 85.1416 6.8957 86.3341 6.8957C87.5566 6.8957 88.6216 7.16945 89.5291 7.71695C90.4366 8.26445 91.1416 9.02195 91.6441 9.98945C92.1466 10.9495 92.3978 12.0557 92.3978 13.3082C92.3978 14.5682 92.1428 15.682 91.6328 16.6495C91.1303 17.6095 90.4253 18.3632 89.5178 18.9107C88.6103 19.4507 87.5491 19.7207 86.3341 19.7207ZM86.3341 17.1782C87.4141 17.1782 88.2166 16.8182 88.7416 16.0982C89.2666 15.3782 89.5291 14.4482 89.5291 13.3082C89.5291 12.1307 89.2628 11.1932 88.7303 10.4957C88.1978 9.7907 87.3991 9.4382 86.3341 9.4382C85.6066 9.4382 85.0066 9.6032 84.5341 9.9332C84.0691 10.2557 83.7241 10.7095 83.4991 11.2945C83.2741 11.872 83.1616 12.5432 83.1616 13.3082C83.1616 14.4857 83.4278 15.427 83.9603 16.132C84.5003 16.8295 85.2916 17.1782 86.3341 17.1782Z" fill="black"/>
<path d="M98.8478 19.7207C97.7303 19.7207 96.7553 19.4395 95.9228 18.877C95.0903 18.3145 94.4453 17.5495 93.9878 16.582C93.5303 15.6145 93.3015 14.5232 93.3015 13.3082C93.3015 12.0782 93.5303 10.9832 93.9878 10.0232C94.4528 9.0557 95.109 8.29445 95.9565 7.73945C96.804 7.17695 97.8015 6.8957 98.949 6.8957C100.104 6.8957 101.072 7.17695 101.852 7.73945C102.639 8.29445 103.235 9.0557 103.64 10.0232C104.045 10.9907 104.248 12.0857 104.248 13.3082C104.248 14.5157 104.045 15.607 103.64 16.582C103.235 17.5495 102.632 18.3145 101.829 18.877C101.027 19.4395 100.033 19.7207 98.8478 19.7207ZM99.264 17.2907C99.9915 17.2907 100.577 17.1257 101.019 16.7957C101.469 16.4582 101.795 15.9895 101.998 15.3895C102.208 14.7895 102.313 14.0957 102.313 13.3082C102.313 12.5132 102.208 11.8195 101.998 11.227C101.795 10.627 101.477 10.162 101.042 9.83195C100.607 9.49445 100.044 9.3257 99.354 9.3257C98.6265 9.3257 98.0265 9.5057 97.554 9.8657C97.0815 10.2182 96.7328 10.6982 96.5078 11.3057C96.2828 11.9057 96.1703 12.5732 96.1703 13.3082C96.1703 14.0507 96.279 14.7257 96.4965 15.3332C96.7215 15.9332 97.0628 16.4095 97.5203 16.762C97.9778 17.1145 98.559 17.2907 99.264 17.2907ZM102.313 19.3832V10.8557H101.975V3.1832H104.709V19.3832H102.313Z" fill="black"/>
<path d="M110.619 19.732C109.719 19.732 108.977 19.582 108.392 19.282C107.807 18.982 107.342 18.5995 106.997 18.1345C106.652 17.6695 106.397 17.1745 106.232 16.6495C106.067 16.1245 105.958 15.6295 105.906 15.1645C105.861 14.692 105.838 14.3095 105.838 14.017V7.2332H108.583V13.0832C108.583 13.4582 108.609 13.882 108.662 14.3545C108.714 14.8195 108.834 15.2695 109.022 15.7045C109.217 16.132 109.502 16.4845 109.877 16.762C110.259 17.0395 110.773 17.1782 111.418 17.1782C111.763 17.1782 112.104 17.122 112.442 17.0095C112.779 16.897 113.083 16.7057 113.353 16.4357C113.631 16.1582 113.852 15.7795 114.017 15.2995C114.182 14.8195 114.264 14.212 114.264 13.477L115.873 14.1632C115.873 15.1982 115.671 16.1357 115.266 16.9757C114.868 17.8157 114.279 18.487 113.499 18.9895C112.719 19.4845 111.759 19.732 110.619 19.732ZM114.591 19.3832V15.6145H114.264V7.2332H116.987V19.3832H114.591Z" fill="black"/>
<path d="M118.123 19.3832V2.8457H120.834V19.3832H118.123Z" fill="black"/>
<path d="M128.153 19.7207C126.923 19.7207 125.843 19.4545 124.913 18.922C123.983 18.3895 123.255 17.6507 122.73 16.7057C122.213 15.7607 121.954 14.6732 121.954 13.4432C121.954 12.1157 122.209 10.9645 122.719 9.98945C123.229 9.00695 123.938 8.2457 124.845 7.7057C125.753 7.1657 126.803 6.8957 127.995 6.8957C129.255 6.8957 130.324 7.19195 131.201 7.78445C132.086 8.36945 132.743 9.1982 133.17 10.2707C133.598 11.3432 133.759 12.607 133.654 14.062H130.965V13.072C130.958 11.752 130.725 10.7882 130.268 10.1807C129.81 9.5732 129.09 9.26945 128.108 9.26945C126.998 9.26945 126.173 9.61445 125.633 10.3045C125.093 10.987 124.823 11.9882 124.823 13.3082C124.823 14.5382 125.093 15.4907 125.633 16.1657C126.173 16.8407 126.96 17.1782 127.995 17.1782C128.663 17.1782 129.236 17.032 129.716 16.7395C130.204 16.4395 130.579 16.0082 130.841 15.4457L133.519 16.2557C133.054 17.3507 132.334 18.202 131.359 18.8095C130.391 19.417 129.323 19.7207 128.153 19.7207ZM123.968 14.062V12.0145H132.326V14.062H123.968Z" fill="black"/>
<path d="M137.885 17.9062L135.41 9.80625H136.295L138.328 16.4587L140.36 9.80625H141.193L143.233 16.4587L145.273 9.80625H146.143L143.668 17.9062H142.858L140.78 11.1637L138.695 17.9062H137.885ZM147.148 8.17125V7.06875H148.011V8.17125H147.148ZM147.148 17.9062V9.80625H148.011V17.9062H147.148ZM155.697 17.9062V13.6912C155.697 13.1812 155.645 12.7262 155.54 12.3262C155.44 11.9262 155.285 11.5862 155.075 11.3062C154.87 11.0262 154.61 10.8137 154.295 10.6687C153.985 10.5237 153.617 10.4512 153.192 10.4512C152.752 10.4512 152.37 10.5287 152.045 10.6837C151.725 10.8337 151.46 11.0462 151.25 11.3212C151.045 11.5962 150.89 11.9237 150.785 12.3037C150.685 12.6787 150.635 13.0887 150.635 13.5337L149.952 13.4512C149.952 12.5762 150.1 11.8562 150.395 11.2912C150.695 10.7212 151.097 10.3012 151.602 10.0312C152.107 9.75625 152.675 9.61875 153.305 9.61875C153.75 9.61875 154.147 9.68375 154.497 9.81375C154.852 9.94375 155.16 10.1287 155.42 10.3688C155.68 10.6037 155.895 10.8837 156.065 11.2087C156.235 11.5287 156.36 11.8812 156.44 12.2662C156.525 12.6512 156.567 13.0537 156.567 13.4737V17.9062H155.697ZM149.765 17.9062V9.80625H150.552V11.6287H150.635V17.9062H149.765ZM161.16 21.7313C160.76 21.7313 160.36 21.6713 159.96 21.5513C159.565 21.4363 159.195 21.2463 158.85 20.9813C158.505 20.7213 158.212 20.3738 157.972 19.9388L158.752 19.4738C158.997 19.9738 159.345 20.3313 159.795 20.5463C160.245 20.7613 160.702 20.8688 161.167 20.8688C161.822 20.8688 162.34 20.7463 162.72 20.5013C163.105 20.2613 163.38 19.8988 163.545 19.4138C163.71 18.9338 163.792 18.3363 163.792 17.6212V15.4987H163.882V9.80625H164.67V17.6212C164.67 17.8612 164.665 18.0913 164.655 18.3113C164.645 18.5313 164.622 18.7513 164.587 18.9713C164.497 19.5963 164.312 20.1113 164.032 20.5163C163.752 20.9263 163.372 21.2313 162.892 21.4313C162.417 21.6313 161.84 21.7313 161.16 21.7313ZM161.122 18.1313C160.357 18.1313 159.71 17.9438 159.18 17.5687C158.655 17.1887 158.252 16.6762 157.972 16.0312C157.697 15.3812 157.56 14.6512 157.56 13.8412C157.56 13.0412 157.697 12.3187 157.972 11.6737C158.247 11.0287 158.642 10.5187 159.157 10.1437C159.677 9.76875 160.305 9.58125 161.04 9.58125C161.795 9.58125 162.432 9.76625 162.952 10.1362C163.472 10.5062 163.865 11.0137 164.13 11.6587C164.395 12.2987 164.527 13.0262 164.527 13.8412C164.527 14.6512 164.395 15.3787 164.13 16.0237C163.865 16.6687 163.48 17.1812 162.975 17.5612C162.47 17.9412 161.852 18.1313 161.122 18.1313ZM161.175 17.3062C161.78 17.3062 162.282 17.1562 162.682 16.8562C163.087 16.5512 163.387 16.1387 163.582 15.6187C163.782 15.0937 163.882 14.5012 163.882 13.8412C163.882 13.1762 163.782 12.5837 163.582 12.0637C163.382 11.5437 163.082 11.1387 162.682 10.8487C162.282 10.5537 161.785 10.4062 161.19 10.4062C160.575 10.4062 160.067 10.5587 159.667 10.8637C159.267 11.1637 158.97 11.5737 158.775 12.0937C158.58 12.6087 158.482 13.1912 158.482 13.8412C158.482 14.4962 158.582 15.0862 158.782 15.6112C158.987 16.1312 159.287 16.5437 159.682 16.8487C160.082 17.1537 160.58 17.3062 161.175 17.3062ZM169.262 18.1163C168.327 18.1163 167.555 17.9187 166.945 17.5237C166.34 17.1287 165.965 16.5787 165.82 15.8737L166.705 15.7237C166.83 16.2037 167.125 16.5862 167.59 16.8712C168.055 17.1562 168.625 17.2987 169.3 17.2987C169.97 17.2987 170.502 17.1562 170.897 16.8712C171.292 16.5862 171.49 16.1962 171.49 15.7013C171.49 15.4312 171.427 15.2112 171.302 15.0412C171.182 14.8662 170.942 14.7062 170.582 14.5612C170.222 14.4162 169.687 14.2462 168.977 14.0513C168.227 13.8512 167.64 13.6512 167.215 13.4512C166.795 13.2512 166.497 13.0237 166.322 12.7687C166.152 12.5137 166.067 12.2012 166.067 11.8312C166.067 11.3862 166.195 10.9962 166.45 10.6612C166.705 10.3212 167.06 10.0562 167.515 9.86625C167.975 9.67625 168.505 9.58125 169.105 9.58125C169.705 9.58125 170.245 9.68125 170.725 9.88125C171.205 10.0762 171.592 10.3512 171.887 10.7062C172.182 11.0562 172.352 11.4637 172.397 11.9287L171.512 12.0937C171.427 11.5737 171.165 11.1637 170.725 10.8637C170.285 10.5587 169.735 10.4037 169.075 10.3987C168.45 10.3887 167.94 10.5137 167.545 10.7737C167.15 11.0287 166.952 11.3662 166.952 11.7862C166.952 12.0262 167.02 12.2312 167.155 12.4012C167.295 12.5662 167.54 12.7187 167.89 12.8587C168.24 12.9987 168.735 13.1487 169.375 13.3087C170.155 13.5087 170.762 13.7137 171.197 13.9237C171.637 14.1337 171.947 14.3812 172.127 14.6662C172.307 14.9462 172.397 15.2937 172.397 15.7087C172.397 16.4587 172.117 17.0487 171.557 17.4787C171.002 17.9037 170.237 18.1163 169.262 18.1163ZM173.743 17.9062V16.8187H174.83V17.9062H173.743Z" fill="black"/>
<path d="M73.1105 26.8256H71.2793V28.7943H70.8293V24.3193H73.4668V24.7318H71.2793V26.4193H73.1105V26.8256ZM75.5211 25.7318V26.1193H75.2836C74.7274 26.1193 74.3711 26.4943 74.3711 27.0693V28.7943H73.9399V25.7693H74.3461L74.3774 26.2381C74.4961 25.9131 74.8149 25.7006 75.2399 25.7006C75.3336 25.7006 75.4149 25.7068 75.5211 25.7318ZM75.7659 27.2818C75.7659 26.3568 76.4159 25.6881 77.3034 25.6881C78.1909 25.6881 78.8409 26.3568 78.8409 27.2818C78.8409 28.2006 78.1909 28.8693 77.3034 28.8693C76.4159 28.8693 75.7659 28.2006 75.7659 27.2818ZM76.2034 27.2756C76.2034 27.9881 76.6534 28.4818 77.3034 28.4818C77.9472 28.4818 78.4034 27.9881 78.4034 27.2756C78.4034 26.5756 77.9472 26.0756 77.3034 26.0756C76.6534 26.0756 76.2034 26.5756 76.2034 27.2756ZM79.9619 28.7943H79.5307V25.7693H79.9057L79.9557 26.2006C80.1057 25.8818 80.4432 25.6881 80.8682 25.6881C81.3432 25.6881 81.6994 25.9381 81.8432 26.3318C81.9807 25.9381 82.3494 25.6881 82.8369 25.6881C83.4932 25.6881 83.9244 26.1131 83.9244 26.8131V28.7943H83.5057V26.9006C83.5057 26.3818 83.2182 26.0756 82.7557 26.0756C82.2494 26.0756 81.9494 26.4568 81.9494 26.9256V28.7943H81.5244V26.8943C81.5244 26.3818 81.2307 26.0818 80.7744 26.0818C80.2682 26.0818 79.9619 26.4568 79.9619 26.9193V28.7943ZM88.1253 27.0631C88.0878 26.9923 88.0524 26.9381 88.0191 26.9006C87.9857 26.8631 87.9399 26.836 87.8816 26.8193C87.8274 26.7985 87.7441 26.7839 87.6316 26.7756L87.3878 28.0506C87.3753 28.1214 87.3628 28.1839 87.3503 28.2381C87.342 28.2923 87.3378 28.3423 87.3378 28.3881C87.3378 28.4714 87.3691 28.5235 87.4316 28.5443C87.4982 28.5652 87.6399 28.5839 87.8566 28.6006C87.8524 28.6298 87.8462 28.6631 87.8378 28.7006C87.8337 28.7381 87.8274 28.7714 87.8191 28.8006C87.6899 28.7964 87.5441 28.7943 87.3816 28.7943C87.2232 28.7902 87.0732 28.7881 86.9316 28.7881C86.7899 28.7881 86.642 28.7902 86.4878 28.7943C86.3378 28.7943 86.1774 28.7964 86.0066 28.8006C86.0066 28.7714 86.0087 28.7381 86.0128 28.7006C86.017 28.6631 86.0253 28.6298 86.0378 28.6006C86.217 28.5798 86.3462 28.561 86.4253 28.5443C86.5087 28.5235 86.5649 28.4839 86.5941 28.4256C86.6274 28.3631 86.6566 28.2631 86.6816 28.1256L87.2566 25.1631C87.2732 25.0881 87.2857 25.0256 87.2941 24.9756C87.3024 24.9214 87.3066 24.8756 87.3066 24.8381C87.3066 24.7423 87.2691 24.686 87.1941 24.6693C87.1232 24.6485 86.9795 24.6298 86.7628 24.6131C86.767 24.5506 86.7795 24.4839 86.8003 24.4131C86.9212 24.4131 87.0587 24.4152 87.2128 24.4193C87.367 24.4235 87.492 24.4256 87.5878 24.4256C87.6545 24.4256 87.7503 24.4256 87.8753 24.4256C88.0003 24.4214 88.1232 24.4193 88.2441 24.4193C88.3649 24.4152 88.4545 24.4131 88.5128 24.4131C88.9587 24.4131 89.2962 24.4923 89.5253 24.6506C89.7587 24.8089 89.8753 25.0548 89.8753 25.3881C89.8753 25.7256 89.7607 26.0048 89.5316 26.2256C89.3024 26.4423 89.0066 26.6027 88.6441 26.7068V26.7256C88.6774 26.7631 88.7087 26.8048 88.7378 26.8506C88.7712 26.8923 88.8045 26.9423 88.8378 27.0006C88.8753 27.0631 88.9212 27.1506 88.9753 27.2631C89.0337 27.3756 89.0941 27.4964 89.1566 27.6256C89.2191 27.7506 89.2774 27.8693 89.3316 27.9818C89.4232 28.1652 89.5024 28.3006 89.5691 28.3881C89.6357 28.4714 89.7107 28.5256 89.7941 28.5506C89.8774 28.5714 89.9878 28.5881 90.1253 28.6006C90.1253 28.6673 90.1107 28.7339 90.0816 28.8006C90.0149 28.8006 89.9274 28.7985 89.8191 28.7943C89.7107 28.7943 89.6045 28.7943 89.5003 28.7943C89.3962 28.7902 89.3128 28.7881 89.2503 28.7881C89.1837 28.7881 89.1295 28.7902 89.0878 28.7943C89.0503 28.7943 88.9982 28.7943 88.9316 28.7943C88.8649 28.6235 88.7878 28.4402 88.7003 28.2443C88.617 28.0443 88.5253 27.8423 88.4253 27.6381C88.3295 27.4339 88.2295 27.2423 88.1253 27.0631ZM87.6816 26.5193C87.7357 26.5277 87.792 26.536 87.8503 26.5443C87.9128 26.5485 87.9732 26.5506 88.0316 26.5506C88.2941 26.5506 88.5087 26.5006 88.6753 26.4006C88.842 26.3006 88.9649 26.1673 89.0441 26.0006C89.1232 25.8339 89.1628 25.6506 89.1628 25.4506C89.1628 25.3256 89.142 25.2048 89.1003 25.0881C89.0628 24.9673 88.9899 24.8673 88.8816 24.7881C88.7774 24.7089 88.6253 24.6693 88.4253 24.6693C88.3878 24.6693 88.3295 24.6714 88.2503 24.6756C88.1753 24.6756 88.1045 24.6777 88.0378 24.6818L87.6816 26.5193ZM91.0833 28.8631C90.9541 28.8631 90.8312 28.8298 90.7145 28.7631C90.5979 28.6923 90.5041 28.5839 90.4333 28.4381C90.3624 28.2923 90.327 28.1048 90.327 27.8756C90.327 27.5923 90.3812 27.3256 90.4895 27.0756C90.5979 26.8256 90.7395 26.6048 90.9145 26.4131C91.0895 26.2214 91.2812 26.0714 91.4895 25.9631C91.702 25.8506 91.9104 25.7943 92.1145 25.7943C92.1937 25.7943 92.2833 25.8068 92.3833 25.8318C92.4833 25.8527 92.5874 25.8902 92.6958 25.9443C92.7833 25.9318 92.8729 25.9193 92.9645 25.9068C93.0604 25.8943 93.1583 25.8798 93.2583 25.8631L93.277 25.8881C93.227 26.0631 93.1833 26.2298 93.1458 26.3881C93.1083 26.5423 93.0708 26.7006 93.0333 26.8631L92.7458 28.1006C92.7416 28.1298 92.7333 28.1673 92.7208 28.2131C92.7083 28.2589 92.702 28.3027 92.702 28.3443C92.702 28.3818 92.7104 28.4131 92.727 28.4381C92.7437 28.4631 92.7729 28.4756 92.8145 28.4756C92.8854 28.4756 92.9749 28.4381 93.0833 28.3631C93.1916 28.2881 93.2895 28.1964 93.377 28.0881C93.4312 28.1256 93.4791 28.1673 93.5208 28.2131C93.3791 28.4006 93.227 28.5568 93.0645 28.6818C92.902 28.8068 92.7187 28.8693 92.5145 28.8693C92.3604 28.8693 92.2499 28.8318 92.1833 28.7568C92.1166 28.6777 92.0833 28.5798 92.0833 28.4631C92.0833 28.3506 92.1062 28.2214 92.152 28.0756H92.1208C91.9666 28.3423 91.7999 28.5402 91.6208 28.6693C91.4458 28.7985 91.2666 28.8631 91.0833 28.8631ZM92.5333 26.3381C92.4458 26.2589 92.3541 26.1964 92.2583 26.1506C92.1624 26.1006 92.0645 26.0756 91.9645 26.0756C91.8104 26.0756 91.6729 26.1318 91.552 26.2443C91.4312 26.3568 91.3291 26.5027 91.2458 26.6818C91.1624 26.8568 91.0999 27.0464 91.0583 27.2506C91.0166 27.4506 90.9958 27.6423 90.9958 27.8256C90.9958 28.0756 91.0291 28.2464 91.0958 28.3381C91.1624 28.4256 91.2416 28.4693 91.3333 28.4693C91.4416 28.4693 91.5604 28.4173 91.6895 28.3131C91.8229 28.2048 91.952 28.0339 92.077 27.8006C92.2062 27.5631 92.3166 27.2506 92.4083 26.8631L92.5333 26.3381ZM94.4257 28.7943C94.4423 28.6443 94.4527 28.4964 94.4569 28.3506C94.4611 28.2006 94.4632 28.061 94.4632 27.9318C94.4632 27.586 94.4507 27.286 94.4257 27.0318C94.4007 26.7735 94.359 26.5735 94.3007 26.4318C94.2465 26.286 94.1694 26.2131 94.0694 26.2131C94.0194 26.2131 93.9548 26.236 93.8757 26.2818C93.7965 26.3235 93.709 26.3943 93.6132 26.4943C93.584 26.4735 93.559 26.4527 93.5382 26.4318C93.5132 26.411 93.4902 26.3881 93.4694 26.3631C93.6194 26.1798 93.7736 26.0443 93.9319 25.9568C94.0902 25.8652 94.2402 25.8193 94.3819 25.8193C94.6361 25.8193 94.809 25.9652 94.9007 26.2568C94.9923 26.5485 95.0382 26.9464 95.0382 27.4506C95.0382 27.5589 95.0361 27.6735 95.0319 27.7943C95.0277 27.9152 95.0215 28.0298 95.0132 28.1381C95.2173 27.8756 95.3923 27.6089 95.5382 27.3381C95.6882 27.0631 95.8111 26.8027 95.9069 26.5568C96.0069 26.311 96.0798 26.0943 96.1257 25.9068C96.2298 25.886 96.3277 25.8756 96.4194 25.8756C96.4819 26.0923 96.534 26.3318 96.5757 26.5943C96.6173 26.8568 96.6486 27.1318 96.6694 27.4193C96.6902 27.7027 96.7007 27.9818 96.7007 28.2568C96.8882 28.0735 97.0465 27.8839 97.1757 27.6881C97.3048 27.4881 97.409 27.2985 97.4882 27.1193C97.5673 26.936 97.6215 26.7818 97.6507 26.6568C97.5548 26.5985 97.4757 26.5256 97.4132 26.4381C97.3548 26.3464 97.3257 26.2527 97.3257 26.1568C97.3257 26.061 97.3548 25.9777 97.4132 25.9068C97.4757 25.8318 97.559 25.7943 97.6632 25.7943C97.759 25.7943 97.8486 25.8318 97.9319 25.9068C98.0152 25.9818 98.0569 26.1048 98.0569 26.2756C98.0569 26.4589 97.9965 26.6943 97.8757 26.9818C97.759 27.2652 97.5819 27.5714 97.3444 27.9006C97.1069 28.2256 96.8048 28.5423 96.4382 28.8506C96.4048 28.8506 96.3569 28.8423 96.2944 28.8256C96.2319 28.8131 96.184 28.7985 96.1507 28.7818C96.1548 28.736 96.1569 28.6881 96.1569 28.6381C96.1569 28.5839 96.1569 28.5298 96.1569 28.4756C96.1569 28.3089 96.1527 28.1318 96.1444 27.9443C96.1361 27.7568 96.1236 27.5756 96.1069 27.4006C96.0902 27.2256 96.0715 27.0714 96.0507 26.9381C95.909 27.2506 95.7277 27.5735 95.5069 27.9068C95.2902 28.236 95.0236 28.5548 94.7069 28.8631C94.6777 28.8631 94.6319 28.8548 94.5694 28.8381C94.5069 28.8256 94.459 28.811 94.4257 28.7943ZM101.705 28.7943L99.9928 24.3193H100.474L101.668 27.4318C101.762 27.6756 101.849 27.9193 101.949 28.2318C102.043 27.9068 102.155 27.5943 102.224 27.4256L103.412 24.3193H103.874L102.174 28.7943H101.705ZM104.597 24.9381C104.422 24.9381 104.278 24.7943 104.278 24.6193C104.278 24.4443 104.422 24.2943 104.597 24.2943C104.772 24.2943 104.922 24.4443 104.922 24.6193C104.922 24.7943 104.772 24.9381 104.597 24.9381ZM104.384 28.7943V25.7693H104.815V28.7943H104.384ZM105.459 27.9443H105.871C105.871 28.2943 106.134 28.5131 106.559 28.5131C107.027 28.5131 107.302 28.3131 107.302 27.9881C107.302 27.7381 107.177 27.5943 106.821 27.5068L106.302 27.3756C105.777 27.2443 105.521 26.9693 105.521 26.5568C105.521 26.0256 105.965 25.6881 106.615 25.6881C107.252 25.6881 107.665 26.0381 107.684 26.6006H107.265C107.252 26.2506 107.009 26.0443 106.602 26.0443C106.177 26.0443 105.94 26.2256 105.94 26.5506C105.94 26.7818 106.102 26.9443 106.434 27.0256L106.952 27.1568C107.477 27.2881 107.715 27.5318 107.715 27.9693C107.715 28.5131 107.252 28.8693 106.565 28.8693C105.884 28.8693 105.459 28.5068 105.459 27.9443ZM110.55 25.7693H110.981V28.7943H110.606L110.55 28.2818C110.381 28.6318 109.962 28.8693 109.487 28.8693C108.775 28.8693 108.387 28.3818 108.387 27.6443V25.7631H108.825V27.5068C108.825 28.2256 109.143 28.4818 109.625 28.4818C110.206 28.4818 110.55 28.0943 110.55 27.3756V25.7693ZM112.748 28.8693C112.104 28.8693 111.723 28.5068 111.723 27.9756C111.723 27.4193 112.148 27.0693 112.854 27.0131L113.854 26.9318V26.8318C113.854 26.2381 113.498 26.0506 113.054 26.0506C112.529 26.0506 112.217 26.2881 112.217 26.6943H111.823C111.823 26.0818 112.323 25.6881 113.067 25.6881C113.767 25.6881 114.279 26.0381 114.279 26.8381V28.7943H113.917L113.861 28.2631C113.673 28.6443 113.261 28.8693 112.748 28.8693ZM112.848 28.5193C113.486 28.5193 113.854 28.0756 113.854 27.4193V27.2568L112.961 27.3256C112.392 27.3756 112.161 27.6256 112.161 27.9631C112.161 28.3318 112.436 28.5193 112.848 28.5193ZM115.595 28.7943H115.163V24.2381H115.595V28.7943ZM116.256 27.9443H116.668C116.668 28.2943 116.931 28.5131 117.356 28.5131C117.824 28.5131 118.099 28.3131 118.099 27.9881C118.099 27.7381 117.974 27.5943 117.618 27.5068L117.099 27.3756C116.574 27.2443 116.318 26.9693 116.318 26.5568C116.318 26.0256 116.762 25.6881 117.412 25.6881C118.049 25.6881 118.462 26.0381 118.481 26.6006H118.062C118.049 26.2506 117.806 26.0443 117.399 26.0443C116.974 26.0443 116.737 26.2256 116.737 26.5506C116.737 26.7818 116.899 26.9443 117.231 27.0256L117.749 27.1568C118.274 27.2881 118.512 27.5318 118.512 27.9693C118.512 28.5131 118.049 28.8693 117.362 28.8693C116.681 28.8693 116.256 28.5068 116.256 27.9443ZM121.649 28.7943H121.224V26.1318H120.618V25.7693H121.224V24.8131H121.649V25.7693H122.255V26.1318H121.649V28.7943ZM122.574 27.2818C122.574 26.3568 123.224 25.6881 124.111 25.6881C124.999 25.6881 125.649 26.3568 125.649 27.2818C125.649 28.2006 124.999 28.8693 124.111 28.8693C123.224 28.8693 122.574 28.2006 122.574 27.2818ZM123.011 27.2756C123.011 27.9881 123.461 28.4818 124.111 28.4818C124.755 28.4818 125.211 27.9881 125.211 27.2756C125.211 26.5756 124.755 26.0756 124.111 26.0756C123.461 26.0756 123.011 26.5756 123.011 27.2756ZM128.616 28.7943H128.166V24.3193H129.834C130.741 24.3193 131.291 24.8193 131.291 25.6131C131.291 26.2568 130.953 26.7068 130.378 26.8631L131.334 28.7943H130.834L129.922 26.9381H128.616V28.7943ZM128.616 24.7256V26.5318H129.847C130.466 26.5318 130.828 26.1943 130.828 25.6256C130.828 25.0443 130.447 24.7256 129.834 24.7256H128.616ZM133.119 28.8693C132.231 28.8693 131.638 28.2318 131.638 27.2818C131.638 26.3381 132.225 25.6881 133.088 25.6881C133.906 25.6881 134.463 26.2693 134.463 27.1256V27.3381H132.056C132.088 28.0756 132.475 28.5006 133.125 28.5006C133.619 28.5006 133.938 28.2881 134.05 27.8881H134.463C134.3 28.5256 133.831 28.8693 133.119 28.8693ZM133.088 26.0568C132.519 26.0568 132.144 26.4318 132.069 27.0256H134.031C134.031 26.4443 133.656 26.0568 133.088 26.0568ZM135.583 28.7943H135.152V25.7693H135.527L135.577 26.2006C135.727 25.8818 136.065 25.6881 136.49 25.6881C136.965 25.6881 137.321 25.9381 137.465 26.3318C137.602 25.9381 137.971 25.6881 138.458 25.6881C139.115 25.6881 139.546 26.1131 139.546 26.8131V28.7943H139.127V26.9006C139.127 26.3818 138.84 26.0756 138.377 26.0756C137.871 26.0756 137.571 26.4568 137.571 26.9256V28.7943H137.146V26.8943C137.146 26.3818 136.852 26.0818 136.396 26.0818C135.89 26.0818 135.583 26.4568 135.583 26.9193V28.7943ZM141.282 28.8693C140.638 28.8693 140.257 28.5068 140.257 27.9756C140.257 27.4193 140.682 27.0693 141.388 27.0131L142.388 26.9318V26.8318C142.388 26.2381 142.032 26.0506 141.588 26.0506C141.063 26.0506 140.751 26.2881 140.751 26.6943H140.357C140.357 26.0818 140.857 25.6881 141.601 25.6881C142.301 25.6881 142.813 26.0381 142.813 26.8381V28.7943H142.451L142.395 28.2631C142.207 28.6443 141.795 28.8693 141.282 28.8693ZM141.382 28.5193C142.02 28.5193 142.388 28.0756 142.388 27.4193V27.2568L141.495 27.3256C140.926 27.3756 140.695 27.6256 140.695 27.9631C140.695 28.3318 140.97 28.5193 141.382 28.5193ZM145.26 25.7318V26.1193H145.022C144.466 26.1193 144.11 26.4943 144.11 27.0693V28.7943H143.679V25.7693H144.085L144.116 26.2381C144.235 25.9131 144.554 25.7006 144.979 25.7006C145.072 25.7006 145.154 25.7068 145.26 25.7318ZM146.283 28.7943H145.852V24.2381H146.283V27.3318L147.783 25.7693H148.327L147.164 26.9756L148.333 28.7943H147.833L146.871 27.2818L146.283 27.8881V28.7943ZM149.668 28.8693C149.024 28.8693 148.643 28.5068 148.643 27.9756C148.643 27.4193 149.068 27.0693 149.774 27.0131L150.774 26.9318V26.8318C150.774 26.2381 150.418 26.0506 149.974 26.0506C149.449 26.0506 149.137 26.2881 149.137 26.6943H148.743C148.743 26.0818 149.243 25.6881 149.987 25.6881C150.687 25.6881 151.199 26.0381 151.199 26.8381V28.7943H150.837L150.781 28.2631C150.593 28.6443 150.181 28.8693 149.668 28.8693ZM149.768 28.5193C150.406 28.5193 150.774 28.0756 150.774 27.4193V27.2568L149.881 27.3256C149.312 27.3756 149.081 27.6256 149.081 27.9631C149.081 28.3318 149.356 28.5193 149.768 28.5193ZM152.44 28.7943H152.065V24.2381H152.496V26.3568C152.709 25.9131 153.121 25.6881 153.634 25.6881C154.515 25.6881 155.027 26.3756 155.027 27.2881C155.027 28.1943 154.502 28.8693 153.621 28.8693C153.115 28.8693 152.696 28.6443 152.484 28.1756L152.44 28.7943ZM152.502 27.2756C152.502 27.9756 152.89 28.4756 153.552 28.4756C154.209 28.4756 154.59 27.9756 154.59 27.2756C154.59 26.5818 154.209 26.0756 153.552 26.0756C152.89 26.0756 152.502 26.5818 152.502 27.2756ZM156.165 28.7943H155.734V24.2381H156.165V28.7943ZM158.351 28.8693C157.463 28.8693 156.869 28.2318 156.869 27.2818C156.869 26.3381 157.457 25.6881 158.319 25.6881C159.138 25.6881 159.694 26.2693 159.694 27.1256V27.3381H157.288C157.319 28.0756 157.707 28.5006 158.357 28.5006C158.851 28.5006 159.169 28.2881 159.282 27.8881H159.694C159.532 28.5256 159.063 28.8693 158.351 28.8693ZM158.319 26.0568C157.751 26.0568 157.376 26.4318 157.301 27.0256H159.263C159.263 26.4443 158.888 26.0568 158.319 26.0568ZM160.564 28.8631C160.351 28.8631 160.17 28.6881 160.17 28.4818C160.17 28.2693 160.351 28.0881 160.564 28.0881C160.776 28.0881 160.957 28.2693 160.957 28.4818C160.957 28.6881 160.776 28.8631 160.564 28.8631Z" fill="#686868"/>
</svg>
