<svg width="40" height="15" viewBox="0 0 40 15" fill="none" xmlns="http://www.w3.org/2000/svg">
<path d="M0.375 11.9668C0.339193 11.9668 0.242513 11.8916 0.0849609 11.7412C0.0634766 11.7126 0.0348307 11.6839 -0.000976562 11.6553V11.6338C-0.000976562 11.5049 0.181641 11.1468 0.546875 10.5596C0.783203 10.2158 0.983724 9.83984 1.14844 9.43164C1.18424 9.36003 1.21647 9.30273 1.24512 9.25977C1.28092 9.2168 1.38835 9.0306 1.56738 8.70117C1.66048 8.53646 1.7679 8.4541 1.88965 8.4541C1.97559 8.4541 2.04362 8.49349 2.09375 8.57227C2.11523 8.60807 2.12598 8.65104 2.12598 8.70117C2.12598 8.77279 2.10449 8.85514 2.06152 8.94824C2.06152 9.05566 2.02214 9.16667 1.94336 9.28125C1.72135 9.61068 1.58171 9.83984 1.52441 9.96875C1.74642 9.74674 1.96484 9.51758 2.17969 9.28125C2.75977 8.66536 3.45085 8.14974 4.25293 7.73438C4.41764 7.66276 4.55729 7.62695 4.67188 7.62695C4.6862 7.62695 4.72559 7.63053 4.79004 7.6377C4.86165 7.6377 4.93327 7.73079 5.00488 7.91699C5.01204 7.94564 5.01562 7.97786 5.01562 8.01367C5.01562 8.12826 4.97266 8.28223 4.88672 8.47559C4.65039 8.96973 4.46061 9.30632 4.31738 9.48535C4.31022 9.514 4.16699 9.78971 3.8877 10.3125C3.80892 10.4557 3.76953 10.5846 3.76953 10.6992C4.02018 10.6061 4.26367 10.4701 4.5 10.291C4.95117 9.95443 5.40234 9.78613 5.85352 9.78613C6.2474 9.78613 6.5625 9.96875 6.79883 10.334C6.92773 10.5918 7.03874 10.7744 7.13184 10.8818C7.22493 10.9821 7.36816 11.0573 7.56152 11.1074C7.84082 11.1003 8.05566 11.0716 8.20605 11.0215C8.35645 10.9642 8.55697 10.8604 8.80762 10.71C8.90072 10.6527 9.06543 10.513 9.30176 10.291C9.54525 10.069 9.72786 9.95801 9.84961 9.95801C9.94987 9.95801 10 10.001 10 10.0869C10 10.1514 9.94987 10.2409 9.84961 10.3555C9.76367 10.4772 9.63118 10.6097 9.45215 10.7529C8.77181 11.3187 8.15951 11.6016 7.61523 11.6016C7.21419 11.6016 6.8597 11.3617 6.55176 10.8818C6.43717 10.7028 6.29036 10.5345 6.11133 10.377C6.00391 10.3411 5.8929 10.3232 5.77832 10.3232C5.45605 10.3232 5.0013 10.5309 4.41406 10.9463C4.00586 11.2399 3.71582 11.3867 3.54395 11.3867H3.49023C3.26107 11.3008 3.14648 11.1504 3.14648 10.9355C3.14648 10.7565 3.2181 10.5345 3.36133 10.2695C3.58333 9.7181 3.77669 9.31348 3.94141 9.05566C4.14193 8.76204 4.25293 8.5293 4.27441 8.35742C4.28158 8.32161 4.29232 8.28939 4.30664 8.26074C4.23503 8.2679 4.16341 8.28581 4.0918 8.31445C4.04883 8.3431 3.99154 8.37174 3.91992 8.40039C3.47591 8.53646 2.94954 8.9196 2.34082 9.5498C2.28353 9.61426 2.22624 9.68587 2.16895 9.76465C2.06152 9.90788 1.93978 10.0475 1.80371 10.1836C1.6748 10.3125 1.48503 10.5417 1.23438 10.8711C1.06966 11.1074 0.897786 11.3187 0.71875 11.5049C0.661458 11.598 0.600586 11.6982 0.536133 11.8057C0.47168 11.9131 0.417969 11.9668 0.375 11.9668ZM8.4209 13.8682C8.34212 13.8682 8.27767 13.8538 8.22754 13.8252C8.08431 13.7035 8.0127 13.571 8.0127 13.4277C8.0127 13.2845 8.09863 13.109 8.27051 12.9014C8.43522 12.6865 8.57845 12.5397 8.7002 12.4609C9.00814 12.196 9.3125 11.9919 9.61328 11.8486L9.67773 11.8057L9.58105 11.5586C9.48079 11.3294 9.43066 10.9499 9.43066 10.4199C9.43783 10.2767 9.48079 10.0511 9.55957 9.74316C9.6097 9.46387 9.71354 9.19531 9.87109 8.9375C9.96419 8.74414 10.0465 8.60449 10.1182 8.51855C10.4476 8.21777 10.7126 8.01009 10.9131 7.89551C11.2067 7.72363 11.3857 7.6377 11.4502 7.6377C11.6364 7.59473 11.8047 7.57324 11.9551 7.57324C12.0124 7.57324 12.0661 7.56966 12.1162 7.5625C12.374 7.61263 12.5029 7.72363 12.5029 7.89551C12.5029 8.08171 12.374 8.1748 12.1162 8.1748C11.7868 8.1748 11.5254 8.21419 11.332 8.29297C11.1458 8.37174 10.9704 8.50781 10.8057 8.70117L10.5156 8.92676C10.3079 9.13444 10.1611 9.35286 10.0752 9.58203C9.96777 9.91146 9.91406 10.1836 9.91406 10.3984C9.95703 11.0931 10.0251 11.487 10.1182 11.5801L10.4941 11.4082C12.2702 10.5202 13.3874 10.0762 13.8457 10.0762C13.9746 10.0762 14.0391 10.1335 14.0391 10.248L14.0283 10.334C14.014 10.4271 13.8135 10.5094 13.4268 10.5811C13.126 10.6383 12.7321 10.778 12.2451 11C11.443 11.3581 10.7878 11.6947 10.2793 12.0098C10.3223 12.1172 10.3438 12.2282 10.3438 12.3428C10.3438 12.6221 10.265 12.8799 10.1074 13.1162C9.78516 13.3883 9.50228 13.5781 9.25879 13.6855C9.24447 13.6855 9.23372 13.6891 9.22656 13.6963C9.14779 13.7393 9.06543 13.7679 8.97949 13.7822C8.77181 13.8395 8.58561 13.8682 8.4209 13.8682ZM8.79688 13.2988C8.96159 13.2988 9.25163 13.1449 9.66699 12.8369C9.75293 12.7223 9.7959 12.597 9.7959 12.4609C9.7959 12.4323 9.79232 12.4036 9.78516 12.375C9.77799 12.3464 9.77441 12.3213 9.77441 12.2998C9.58822 12.4072 9.39486 12.5576 9.19434 12.751C8.90072 13.0374 8.75391 13.2093 8.75391 13.2666C8.75391 13.2881 8.76823 13.2988 8.79688 13.2988ZM14.6406 11.6875H14.4902C14.2253 11.6875 13.9531 11.641 13.6738 11.5479C13.4017 11.4189 13.2656 11.2256 13.2656 10.9678C13.2656 10.7744 13.3122 10.5775 13.4053 10.377C13.6416 9.88997 13.9603 9.50326 14.3613 9.2168L15.0488 8.71191C15.3066 8.51139 15.5895 8.32161 15.8975 8.14258C16.4274 7.89193 16.8535 7.7666 17.1758 7.7666C17.2402 7.7666 17.3298 7.79167 17.4443 7.8418C17.4587 7.85612 17.4801 7.86686 17.5088 7.87402C17.652 7.93132 17.7236 8.04232 17.7236 8.20703C17.7236 8.31445 17.6628 8.45052 17.541 8.61523C17.362 8.79427 17.1257 8.98047 16.832 9.17383C16.6602 9.31706 16.5062 9.38867 16.3701 9.38867C16.3057 9.38867 16.2484 9.37435 16.1982 9.3457C16.1123 9.29557 16.0693 9.22754 16.0693 9.1416C16.0693 9.12728 16.0729 9.08789 16.0801 9.02344C16.0944 8.95182 16.1839 8.87305 16.3486 8.78711C16.4346 8.78711 16.4919 8.75846 16.5205 8.70117C16.5277 8.68685 16.5814 8.6403 16.6816 8.56152C16.696 8.55436 16.7103 8.5472 16.7246 8.54004C16.7389 8.52572 16.7604 8.51139 16.7891 8.49707C16.8177 8.48275 16.8786 8.42904 16.9717 8.33594L16.9502 8.3252C16.8929 8.361 16.8249 8.39323 16.7461 8.42188C16.2806 8.48633 15.9225 8.61882 15.6719 8.81934L15.1885 9.13086C14.945 9.28841 14.6764 9.52116 14.3828 9.8291C14.2038 10.0153 14.0462 10.2373 13.9102 10.4951C13.8815 10.5954 13.8672 10.6921 13.8672 10.7852C13.8672 10.8281 13.8708 10.8962 13.8779 10.9893C13.8923 11.0752 13.9889 11.154 14.168 11.2256C14.347 11.2757 14.5117 11.3008 14.6621 11.3008C14.8984 11.3008 15.5537 11.1611 16.6279 10.8818C17.2939 10.7243 17.7952 10.5882 18.1318 10.4736C19.0986 10.1514 19.625 9.99023 19.7109 9.99023C19.8327 9.99023 19.8936 10.0404 19.8936 10.1406C19.8936 10.2337 19.8291 10.3053 19.7002 10.3555L17.208 11.0537C16.0908 11.4476 15.235 11.6589 14.6406 11.6875ZM19.5928 12.0098H19.5605C19.4674 12.0098 19.3672 11.9847 19.2598 11.9346C19.1523 11.8773 19.0807 11.7126 19.0449 11.4404V11.3975C19.0449 11.2542 19.1022 11.0859 19.2168 10.8926C19.2598 10.8424 19.2848 10.8066 19.292 10.7852C19.335 10.6348 19.403 10.5059 19.4961 10.3984L19.3887 10.3447C19.3529 10.3089 19.3135 10.2803 19.2705 10.2588C19.1058 10.1657 19.0234 10.0296 19.0234 9.85059C19.0234 9.62858 19.1237 9.41374 19.3242 9.20605C19.6536 8.88379 20.1048 8.69401 20.6777 8.63672L21.0537 8.62598C21.2399 8.62598 21.4548 8.73698 21.6982 8.95898C21.7985 9.10221 21.8486 9.27409 21.8486 9.47461C21.8486 9.77539 21.7197 10.0869 21.4619 10.4092C22.1781 10.3734 22.9443 10.2337 23.7607 9.99023H23.8467C24.0329 9.99023 24.126 10.0583 24.126 10.1943C24.126 10.3232 24.0293 10.4056 23.8359 10.4414L23.2129 10.5273C22.3965 10.6634 21.7484 10.7314 21.2686 10.7314C21.154 10.9749 20.8102 11.3223 20.2373 11.7734C19.9437 11.9167 19.7288 11.9954 19.5928 12.0098ZM20.8818 10.4199L20.9141 10.3662C20.9714 10.2301 21.0286 10.1084 21.0859 10.001C21.2148 9.82194 21.2865 9.61426 21.3008 9.37793C21.3008 9.36361 21.29 9.3457 21.2686 9.32422C21.2542 9.30273 21.2327 9.27767 21.2041 9.24902C21.1826 9.21322 21.1576 9.18099 21.1289 9.15234C21.1003 9.11654 21.0501 9.09147 20.9785 9.07715C20.9141 9.06283 20.8174 9.05566 20.6885 9.05566C20.6025 9.06283 20.5273 9.08073 20.4629 9.10938C20.4056 9.13086 20.3447 9.16309 20.2803 9.20605C20.223 9.24902 20.1406 9.29199 20.0332 9.33496C19.8685 9.42806 19.736 9.54622 19.6357 9.68945C19.5928 9.75391 19.5713 9.81836 19.5713 9.88281C19.5785 9.96159 19.625 10.0368 19.7109 10.1084C19.9115 9.80046 20.1442 9.64648 20.4092 9.64648C20.4593 9.64648 20.5059 9.65723 20.5488 9.67871C20.6491 9.72884 20.7028 9.80046 20.71 9.89355C20.71 9.91504 20.7064 9.96517 20.6992 10.0439C20.6921 10.1156 20.5775 10.2122 20.3555 10.334C20.4199 10.3698 20.5954 10.3984 20.8818 10.4199ZM19.6143 11.5693C19.7145 11.5622 19.9616 11.3402 20.3555 10.9033L20.5596 10.6885C20.3949 10.667 20.2266 10.6348 20.0547 10.5918C19.9831 10.6706 19.9186 10.7565 19.8613 10.8496C19.8542 10.8496 19.8005 10.9212 19.7002 11.0645C19.5999 11.2077 19.5498 11.3438 19.5498 11.4727C19.5498 11.5371 19.5641 11.5693 19.5928 11.5693H19.6143ZM25.5332 14.0293C25.4473 14.0293 25.3649 13.9863 25.2861 13.9004C25.2074 13.8073 25.168 13.6855 25.168 13.5352C25.1751 13.3991 25.1787 13.2666 25.1787 13.1377C25.1859 13.0088 25.2288 12.819 25.3076 12.5684C25.4795 12.0098 25.5798 11.6517 25.6084 11.4941C25.7158 11.0931 25.8698 10.6383 26.0703 10.1299C26.1921 9.82194 26.3031 9.514 26.4033 9.20605C26.3818 9.22038 26.2565 9.36003 26.0273 9.625C25.8053 9.88281 25.5296 10.1585 25.2002 10.4521C24.8493 10.7314 24.5771 10.9964 24.3838 11.2471C24.2692 11.376 24.0866 11.5407 23.8359 11.7412C23.8073 11.7627 23.7751 11.7913 23.7393 11.8271C23.7106 11.863 23.6784 11.8988 23.6426 11.9346C23.5996 11.9632 23.5137 11.9775 23.3848 11.9775C23.1055 11.9775 22.9658 11.8415 22.9658 11.5693C22.9658 11.5049 22.9801 11.4476 23.0088 11.3975C23.0589 11.3187 23.1055 11.2256 23.1484 11.1182C23.263 10.8532 23.3991 10.6025 23.5566 10.3662C23.5853 10.3304 23.6139 10.2874 23.6426 10.2373C23.8001 10.001 24.0007 9.75033 24.2441 9.48535C24.3659 9.36361 24.4984 9.2168 24.6416 9.04492C24.7562 8.90885 24.8887 8.77637 25.0391 8.64746C25.4688 8.27507 25.791 8.07812 26.0059 8.05664L26.3711 8.06738C26.5215 8.08171 26.654 8.139 26.7686 8.23926C26.8545 8.01009 27.4274 6.90007 28.4873 4.90918C28.5876 4.73014 28.7057 4.54036 28.8418 4.33984C28.9779 4.13216 29.096 3.93522 29.1963 3.74902C29.2035 3.72038 29.3431 3.46615 29.6152 2.98633C29.8444 2.58529 30.002 2.32031 30.0879 2.19141C30.138 2.11263 30.1953 2.01237 30.2598 1.89062C30.3815 1.66862 30.5176 1.45736 30.668 1.25684C31.0332 0.698242 31.3626 0.325846 31.6562 0.139648C31.7995 0.0465495 31.9642 0 32.1504 0C32.3796 0 32.5192 0.107422 32.5693 0.322266C32.5837 0.34375 32.598 0.39388 32.6123 0.472656C32.6123 0.494141 32.6123 0.515625 32.6123 0.537109C32.6195 0.551432 32.623 0.572917 32.623 0.601562C32.623 0.623047 32.6266 0.648112 32.6338 0.676758C32.6338 0.855794 32.6051 1.0026 32.5479 1.11719C32.4906 1.33919 32.4189 1.53971 32.333 1.71875C31.8747 2.49219 31.3841 3.18327 30.8613 3.79199C30.4674 4.12142 30.0557 4.62272 29.626 5.2959C29.5257 5.45345 29.4362 5.58594 29.3574 5.69336C28.9134 6.16602 28.4837 6.6888 28.0684 7.26172C27.5885 7.9349 27.1589 8.46126 26.7793 8.84082C26.7363 8.9196 26.7113 8.97331 26.7041 9.00195C26.611 9.36719 26.4893 9.72526 26.3389 10.0762C26.0811 10.6992 25.945 11.2077 25.9307 11.6016C25.9235 11.752 25.877 12.0778 25.791 12.5791C25.7266 12.8298 25.6908 12.9837 25.6836 13.041C25.6908 13.1198 25.7051 13.195 25.7266 13.2666C25.7552 13.3382 25.7695 13.4206 25.7695 13.5137C25.7695 13.5208 25.7731 13.528 25.7803 13.5352C25.7946 13.5423 25.8053 13.5495 25.8125 13.5566V13.5996C25.8125 13.8861 25.7194 14.0293 25.5332 14.0293ZM23.7607 11.0967C23.8109 11.0609 23.8431 11.0394 23.8574 11.0322C23.8717 11.0251 23.8968 11.0072 23.9326 10.9785C23.9756 10.9427 24.0973 10.8424 24.2979 10.6777C24.6989 10.2695 25.1107 9.87207 25.5332 9.48535C25.7982 9.24186 26.056 8.99837 26.3066 8.75488H26.2959C26.0023 8.75488 25.766 8.81217 25.5869 8.92676C25.415 9.04134 25.2002 9.23828 24.9424 9.51758C24.8636 9.60352 24.7812 9.68587 24.6953 9.76465C24.3086 10.1156 24.0007 10.5345 23.7715 11.0215L23.7607 11.0967ZM27.4775 7.42285L28.0039 6.73535C28.5625 6.02637 28.8919 5.61458 28.9922 5.5C29.2572 5.17057 29.4648 4.89486 29.6152 4.67285C29.7441 4.47233 29.8981 4.26823 30.0771 4.06055C30.3923 3.60938 30.5892 3.3444 30.668 3.26562C30.7467 3.18685 30.8184 3.10091 30.8828 3.00781C31.6348 1.89779 32.0107 1.16732 32.0107 0.816406C32.0107 0.680339 32 0.612305 31.9785 0.612305C31.957 0.612305 31.9105 0.651693 31.8389 0.730469L31.3555 1.24609C30.8542 1.7474 30.2025 2.62109 29.4004 3.86719C29.028 4.41146 28.6628 5.04883 28.3047 5.7793L27.4775 7.42285ZM28.4766 11.8594C27.9108 11.8594 27.6279 11.6911 27.6279 11.3545C27.6279 11.2041 27.6458 11.0859 27.6816 11C28.2259 10.1478 28.6162 9.6429 28.8525 9.48535C28.9242 9.44954 29.0602 9.33138 29.2607 9.13086C29.5114 8.90885 29.8623 8.7513 30.3135 8.6582C30.3493 8.65104 30.3851 8.6403 30.4209 8.62598C30.4639 8.61165 30.4997 8.60449 30.5283 8.60449C30.736 8.63314 30.8506 8.7334 30.8721 8.90527C30.8721 9.05566 30.8398 9.18815 30.7754 9.30273C30.6823 9.45312 30.4889 9.63574 30.1953 9.85059C29.8158 10.18 29.4469 10.3447 29.0889 10.3447C28.9528 10.3447 28.849 10.3232 28.7773 10.2803C28.6914 10.3949 28.6019 10.4987 28.5088 10.5918C28.2653 10.8353 28.1436 11.0465 28.1436 11.2256C28.1436 11.29 28.1615 11.3366 28.1973 11.3652C28.4121 11.4082 28.5876 11.4297 28.7236 11.4297C28.8239 11.4297 29.1784 11.3581 29.7871 11.2148C29.9876 11.1862 30.2204 11.1217 30.4854 11.0215C30.6214 10.9714 30.7503 10.932 30.8721 10.9033C31.5166 10.5954 32.1576 10.2695 32.7949 9.92578C32.8665 9.88997 32.9274 9.87207 32.9775 9.87207C33.1136 9.87207 33.1816 9.96159 33.1816 10.1406C33.1745 10.2122 32.9274 10.3483 32.4404 10.5488C32.0824 10.7207 31.8639 10.821 31.7852 10.8496C31.7565 10.8639 31.735 10.8783 31.7207 10.8926C31.7135 10.8997 31.4665 11.0036 30.9795 11.2041C30.7646 11.2614 30.4352 11.3688 29.9912 11.5264C29.7262 11.641 29.3932 11.7269 28.9922 11.7842C28.8203 11.82 28.6484 11.8451 28.4766 11.8594ZM29.3574 9.71094C29.5007 9.64648 29.6725 9.55339 29.873 9.43164C29.9805 9.36719 30.0449 9.32422 30.0664 9.30273C30.0879 9.28125 30.113 9.25618 30.1416 9.22754H30.1309C30.0951 9.24186 30.0628 9.24902 30.0342 9.24902C29.9626 9.24902 29.8516 9.30273 29.7012 9.41016C29.5579 9.51758 29.4434 9.61784 29.3574 9.71094ZM33.8691 13.2988C33.5326 13.2988 33.3643 13.1126 33.3643 12.7402C33.3786 12.3464 33.5326 11.9919 33.8262 11.6768L34.5889 10.6992C34.861 10.3555 35.0472 10.0726 35.1475 9.85059L35.2549 9.64648C35.0687 9.66081 34.8861 9.70378 34.707 9.77539C34.6855 9.78255 34.6641 9.78971 34.6426 9.79688C34.6283 9.79688 34.6068 9.80404 34.5781 9.81836C34.4349 9.87565 34.2451 9.94368 34.0088 10.0225C33.6722 10.1227 33.307 10.1729 32.9131 10.1729C32.8343 10.223 32.7591 10.248 32.6875 10.248C32.5872 10.248 32.512 10.2122 32.4619 10.1406H32.4512L32.3975 10.0654C32.2757 9.94368 32.2077 9.81478 32.1934 9.67871C32.1934 9.6429 32.2041 9.61068 32.2256 9.58203C32.2399 9.55339 32.2471 9.52832 32.2471 9.50684C32.3831 9.26335 32.5622 9.03776 32.7842 8.83008C32.8916 8.70117 32.9954 8.60449 33.0957 8.54004C33.1387 8.51855 33.1924 8.47559 33.2568 8.41113C33.4072 8.28223 33.5469 8.21777 33.6758 8.21777C33.776 8.21777 33.8763 8.26432 33.9766 8.35742C34.041 8.44336 34.0732 8.54362 34.0732 8.6582C34.0732 8.80143 34.0267 8.94108 33.9336 9.07715C33.8405 9.20605 33.6829 9.38151 33.4609 9.60352C33.5039 9.59635 33.554 9.59277 33.6113 9.59277C33.6686 9.58561 33.7546 9.56771 33.8691 9.53906C34.1055 9.44596 34.3311 9.36719 34.5459 9.30273C34.8825 9.20247 35.1009 9.12728 35.2012 9.07715C35.3014 9.01986 35.3945 8.99121 35.4805 8.99121C35.5879 8.99121 35.7025 9.02344 35.8242 9.08789C35.9674 9.17383 36.0391 9.28483 36.0391 9.4209C36.0391 9.52832 35.792 9.89714 35.2979 10.5273C35.2191 10.6348 35.1475 10.735 35.083 10.8281C35.0186 10.9212 34.9219 11.0573 34.793 11.2363C34.6712 11.4154 34.485 11.6947 34.2344 12.0742L34.0947 12.2568C33.9658 12.4144 33.9014 12.5505 33.9014 12.665C33.9014 12.7367 33.9873 12.7725 34.1592 12.7725C34.596 12.7725 35.1618 12.5898 35.8564 12.2246C36.4007 11.9525 36.9987 11.5944 37.6504 11.1504C38.0156 10.9069 38.3307 10.6598 38.5957 10.4092C38.7747 10.2516 38.8929 10.1729 38.9502 10.1729C39.0218 10.1729 39.0612 10.2087 39.0684 10.2803C39.0684 10.3304 39.0361 10.3805 38.9717 10.4307C38.4632 10.9176 37.7327 11.4762 36.7803 12.1064C36.2575 12.4932 35.6702 12.8047 35.0186 13.041C34.5459 13.2129 34.1628 13.2988 33.8691 13.2988ZM32.7949 9.52832C33.0098 9.34212 33.1781 9.13086 33.2998 8.89453C32.9632 9.18815 32.7949 9.39583 32.7949 9.51758V9.52832Z" fill="#fff"/>
</svg>
