<svg width="24" height="24" viewBox="0 0 24 24" fill="none" xmlns="http://www.w3.org/2000/svg">
<path d="M20.1429 13.3571H13.3571V20.1429C13.3571 20.5028 13.2142 20.848 12.9596 21.1025C12.7051 21.357 12.3599 21.5 12 21.5C11.6401 21.5 11.2949 21.357 11.0404 21.1025C10.7858 20.848 10.6429 20.5028 10.6429 20.1429V13.3571H3.85714C3.49721 13.3571 3.15201 13.2142 2.8975 12.9596C2.64298 12.7051 2.5 12.3599 2.5 12C2.5 11.6401 2.64298 11.2949 2.8975 11.0404C3.15201 10.7858 3.49721 10.6429 3.85714 10.6429H10.6429V3.85714C10.6429 3.49721 10.7858 3.15201 11.0404 2.8975C11.2949 2.64298 11.6401 2.5 12 2.5C12.3599 2.5 12.7051 2.64298 12.9596 2.8975C13.2142 3.15201 13.3571 3.49721 13.3571 3.85714V10.6429H20.1429C20.5028 10.6429 20.848 10.7858 21.1025 11.0404C21.357 11.2949 21.5 11.6401 21.5 12C21.5 12.3599 21.357 12.7051 21.1025 12.9596C20.848 13.2142 20.5028 13.3571 20.1429 13.3571Z" fill="white"/>
</svg>
