<svg width="20" height="20" viewBox="0 0 20 20" fill="none" xmlns="http://www.w3.org/2000/svg">
<g clip-path="url(#clip0_674_547)">
<path fill-rule="evenodd" clip-rule="evenodd" d="M10.5903 13.0892C10.434 13.2454 10.2221 13.3332 10.0011 13.3332C9.78013 13.3332 9.56821 13.2454 9.41193 13.0892L4.69777 8.375C4.61817 8.29813 4.55469 8.20617 4.51102 8.1045C4.46734 8.00283 4.44435 7.89348 4.44339 7.78284C4.44243 7.67219 4.46351 7.56245 4.50542 7.46004C4.54732 7.35763 4.60919 7.26458 4.68744 7.18634C4.76568 7.10809 4.85872 7.04622 4.96114 7.00432C5.06355 6.96242 5.17328 6.94133 5.28393 6.94229C5.39458 6.94325 5.50393 6.96624 5.6056 7.00992C5.70727 7.05359 5.79923 7.11708 5.8761 7.19667L10.0011 11.3217L14.1261 7.19667C14.2833 7.04487 14.4938 6.96087 14.7123 6.96277C14.9308 6.96467 15.1398 7.05231 15.2943 7.20682C15.4488 7.36133 15.5364 7.57034 15.5383 7.78883C15.5402 8.00733 15.4562 8.21783 15.3044 8.375L10.5903 13.0892Z" fill="black" fill-opacity="0.4"/>
</g>
<defs>
<clipPath id="clip0_674_547">
<rect width="20" height="20" fill="white"/>
</clipPath>
</defs>
</svg>
