<svg width="17" height="17" viewBox="0 0 17 17" fill="none" xmlns="http://www.w3.org/2000/svg">
<g clip-path="url(#clip0_40_45)">
<path d="M7.30628 10.7768L7.91703 11.7947L6.82359 15.8631L5.64149 11.0395C5.57582 10.7735 5.3197 10.5994 5.05373 10.6684C2.75521 11.243 1.05103 13.3248 1.05103 15.8039C1.05103 16.3622 1.50416 16.812 2.05909 16.812H14.7535C15.3117 16.812 15.7615 16.3589 15.7615 15.8039C15.7615 13.3248 14.0573 11.243 11.7588 10.6684C11.4929 10.6027 11.2367 10.7768 11.1711 11.0395L9.98897 15.8631L8.89554 11.7947L9.50629 10.7768C9.71644 10.4254 9.4636 9.98213 9.05643 9.98213H7.75941C7.35225 9.98213 7.09941 10.4287 7.30956 10.7768H7.30628Z" fill="#000"/>
<path d="M6.04931 2.49091C5.42419 3.11603 5.073 3.96388 5.073 4.84794C5.073 5.73199 5.42419 6.57984 6.04931 7.20496C6.67443 7.83008 7.52228 8.18127 8.40633 8.18127C9.29039 8.18127 10.1382 7.83008 10.7634 7.20496C11.3885 6.57984 11.7397 5.73199 11.7397 4.84794C11.7397 3.96388 11.3885 3.11603 10.7634 2.49091C10.1382 1.86579 9.29039 1.5146 8.40633 1.5146C7.52228 1.5146 6.67443 1.86579 6.04931 2.49091Z" fill="#000"/>
</g>
<defs>
<clipPath id="clip0_40_45">
<rect width="16.812" height="16.812" fill="white"/>
</clipPath>
</defs>
</svg>
