<svg width="18" height="18" viewBox="0 0 18 18" fill="none" xmlns="http://www.w3.org/2000/svg">
<path d="M2.25001 9.75H3.00001V15C3.00001 15.825 3.67501 16.5 4.50001 16.5H13.5C14.325 16.5 15 15.825 15 15V9.75H15.75C16.05 9.75 16.3275 9.57 16.44 9.285C16.56 9.0075 16.4925 8.685 16.275 8.4675L9.53251 1.7175C9.46312 1.64797 9.3807 1.59281 9.28998 1.55518C9.19924 1.51754 9.10198 1.49817 9.00376 1.49817C8.90553 1.49817 8.80827 1.51754 8.71754 1.55518C8.62681 1.59281 8.54439 1.64797 8.47501 1.7175L1.71751 8.4675C1.50001 8.685 1.44001 9.0075 1.55251 9.285C1.66501 9.5625 1.94251 9.75 2.24251 9.75H2.25001Z" fill="#000"/>
</svg>
