<svg width="18" height="18" viewBox="0 0 18 18" fill="none" xmlns="http://www.w3.org/2000/svg">
<path fill-rule="evenodd" clip-rule="evenodd" d="M14.1561 15.8659H4.40613C3.70993 15.8659 3.04226 15.5893 2.54997 15.0971C2.05769 14.6048 1.78113 13.9371 1.78113 13.2409V3.44816C1.78113 2.64791 2.57313 2.14016 3.26988 2.38166C3.36988 2.41616 3.46663 2.46666 3.56013 2.53316L3.69138 2.62691C4.01062 2.85343 4.39254 2.97479 4.78398 2.97412C5.17542 2.97345 5.55692 2.85077 5.87538 2.62316C6.32241 2.30502 6.85745 2.13406 7.40613 2.13406C7.9548 2.13406 8.48985 2.30502 8.93688 2.62316C9.25534 2.85077 9.63684 2.97345 10.0283 2.97412C10.4197 2.97479 10.8016 2.85343 11.1209 2.62691L11.2521 2.53316C11.9969 2.00066 13.0311 2.53316 13.0311 3.44816V9.11591H15.6561C15.8053 9.11591 15.9484 9.17517 16.0539 9.28066C16.1594 9.38615 16.2186 9.52922 16.2186 9.67841V13.8034C16.2186 14.3504 16.0013 14.875 15.6145 15.2618C15.2277 15.6486 14.7031 15.8659 14.1561 15.8659ZM13.2186 10.2409V13.8034C13.2186 14.052 13.3174 14.2905 13.4932 14.4663C13.669 14.6421 13.9075 14.7409 14.1561 14.7409C14.4048 14.7409 14.6432 14.6421 14.819 14.4663C14.9949 14.2905 15.0936 14.052 15.0936 13.8034V10.2409H13.2186ZM10.0311 7.05341C10.0311 6.90422 9.97186 6.76115 9.86637 6.65566C9.76089 6.55017 9.61781 6.49091 9.46863 6.49091H4.96863C4.81944 6.49091 4.67637 6.55017 4.57088 6.65566C4.46539 6.76115 4.40613 6.90422 4.40613 7.05341C4.40613 7.20259 4.46539 7.34566 4.57088 7.45115C4.67637 7.55664 4.81944 7.61591 4.96863 7.61591H9.46863C9.61781 7.61591 9.76089 7.55664 9.86637 7.45115C9.97186 7.34566 10.0311 7.20259 10.0311 7.05341ZM9.28113 9.30341C9.28113 9.15422 9.22186 9.01115 9.11637 8.90566C9.01089 8.80017 8.86781 8.74091 8.71863 8.74091H4.96863C4.81944 8.74091 4.67637 8.80017 4.57088 8.90566C4.46539 9.01115 4.40613 9.15422 4.40613 9.30341C4.40613 9.45259 4.46539 9.59566 4.57088 9.70115C4.67637 9.80664 4.81944 9.86591 4.96863 9.86591H8.71863C8.86781 9.86591 9.01089 9.80664 9.11637 9.70115C9.22186 9.59566 9.28113 9.45259 9.28113 9.30341ZM9.46863 10.9909C9.61781 10.9909 9.76089 11.0502 9.86637 11.1557C9.97186 11.2611 10.0311 11.4042 10.0311 11.5534C10.0311 11.7026 9.97186 11.8457 9.86637 11.9512C9.76089 12.0566 9.61781 12.1159 9.46863 12.1159H4.96863C4.81944 12.1159 4.67637 12.0566 4.57088 11.9512C4.46539 11.8457 4.40613 11.7026 4.40613 11.5534C4.40613 11.4042 4.46539 11.2611 4.57088 11.1557C4.67637 11.0502 4.81944 10.9909 4.96863 10.9909H9.46863Z" fill="#000"/>
</svg>
