<svg width="12" height="13" viewBox="0 0 12 13" fill="none" xmlns="http://www.w3.org/2000/svg">
<path d="M5.35889 0C5.52962 0.000204178 5.69384 0.0706905 5.81799 0.197057C5.94214 0.323424 6.01685 0.496133 6.02685 0.679896C6.03686 0.86366 5.98141 1.04461 5.87182 1.18577C5.76224 1.32693 5.6068 1.41765 5.43726 1.43939L5.35889 1.44444H2.00958C1.84551 1.44447 1.68715 1.50941 1.56455 1.62696C1.44194 1.74451 1.36361 1.90649 1.34441 2.08217L1.33972 2.16667V10.8333C1.33974 11.0102 1.39998 11.181 1.50901 11.3132C1.61803 11.4453 1.76826 11.5298 1.93121 11.5505L2.00958 11.5556H5.02396C5.19469 11.5558 5.35891 11.6262 5.48306 11.7526C5.60721 11.879 5.68192 12.0517 5.69192 12.2355C5.70193 12.4192 5.64648 12.6002 5.53689 12.7413C5.42731 12.8825 5.27187 12.9732 5.10233 12.9949L5.02396 13H2.00958C1.497 13 1.00378 12.7889 0.630834 12.4097C0.257892 12.0306 0.033421 11.5121 0.00334938 10.9604L3.12185e-09 10.8333V2.16667C-2.85506e-05 1.61401 0.195817 1.08224 0.547466 0.680145C0.899115 0.278051 1.37999 0.0360335 1.89169 0.00361119L2.00958 0H5.35889ZM9.18178 3.94622L11.0761 5.98939C11.2017 6.12483 11.2723 6.30849 11.2723 6.5C11.2723 6.69151 11.2017 6.87517 11.0761 7.01061L9.18178 9.05378C9.05609 9.1892 8.88565 9.26524 8.70795 9.26517C8.53026 9.26511 8.35987 9.18893 8.23426 9.05342C8.10866 8.9179 8.03813 8.73413 8.03819 8.54255C8.03826 8.35097 8.10891 8.16726 8.2346 8.03183L8.98551 7.22222H5.35889C5.18123 7.22222 5.01085 7.14613 4.88522 7.01069C4.7596 6.87525 4.68903 6.69155 4.68903 6.5C4.68903 6.30845 4.7596 6.12475 4.88522 5.98931C5.01085 5.85387 5.18123 5.77778 5.35889 5.77778H8.98551L8.2346 4.96817C8.10891 4.83274 8.03826 4.64903 8.03819 4.45745C8.03813 4.26587 8.10866 4.0821 8.23426 3.94658C8.35987 3.81107 8.53026 3.73489 8.70795 3.73483C8.88565 3.73476 9.05609 3.8108 9.18178 3.94622Z" fill="#000"/>
</svg>
