<svg width="20" height="20" viewBox="0 0 20 20" fill="none" xmlns="http://www.w3.org/2000/svg">
<path fill-rule="evenodd" clip-rule="evenodd" d="M10.5991 13.0892C10.4428 13.2454 10.2309 13.3332 10.0099 13.3332C9.78892 13.3332 9.57699 13.2454 9.42072 13.0892L4.70656 8.375C4.62696 8.29813 4.56348 8.20617 4.5198 8.1045C4.47613 8.00283 4.45314 7.89348 4.45218 7.78284C4.45122 7.67219 4.4723 7.56245 4.5142 7.46004C4.5561 7.35763 4.61798 7.26458 4.69623 7.18634C4.77447 7.10809 4.86751 7.04622 4.96993 7.00432C5.07234 6.96242 5.18207 6.94133 5.29272 6.94229C5.40337 6.94325 5.51272 6.96624 5.61439 7.00992C5.71606 7.05359 5.80802 7.11708 5.88489 7.19667L10.0099 11.3217L14.1349 7.19667C14.2921 7.04487 14.5026 6.96087 14.7211 6.96277C14.9396 6.96467 15.1486 7.05231 15.3031 7.20682C15.4576 7.36133 15.5452 7.57034 15.5471 7.78883C15.549 8.00733 15.465 8.21783 15.3132 8.375L10.5991 13.0892Z" fill="white"/>
</svg>
