<svg width="24" height="24" viewBox="0 0 24 24" fill="none" xmlns="http://www.w3.org/2000/svg">
<path d="M11.9999 2.093C10.1434 2.093 8.36294 2.8305 7.05018 4.14325C5.73743 5.45601 4.99993 7.23649 4.99993 9.093V12.621C5.00008 12.7761 4.96413 12.9292 4.89493 13.068L3.17793 16.501C3.09406 16.6687 3.05445 16.8551 3.06288 17.0424C3.07131 17.2298 3.12748 17.4118 3.22608 17.5713C3.32467 17.7309 3.4624 17.8625 3.6262 17.9538C3.78999 18.0451 3.97441 18.093 4.16193 18.093H19.8379C20.0255 18.093 20.2099 18.0451 20.3737 17.9538C20.5375 17.8625 20.6752 17.7309 20.7738 17.5713C20.8724 17.4118 20.9286 17.2298 20.937 17.0424C20.9454 16.8551 20.9058 16.6687 20.8219 16.501L19.1059 13.068C19.0364 12.9292 19.0001 12.7762 18.9999 12.621V9.093C18.9999 7.23649 18.2624 5.45601 16.9497 4.14325C15.6369 2.8305 13.8564 2.093 11.9999 2.093ZM11.9999 21.093C11.3793 21.0933 10.7738 20.9011 10.2669 20.5429C9.76009 20.1847 9.37681 19.6782 9.16993 19.093H14.8299C14.623 19.6782 14.2398 20.1847 13.7329 20.5429C13.2261 20.9011 12.6206 21.0933 11.9999 21.093Z" fill="#686868"/>
</svg>
