<svg width="18" height="18" viewBox="0 0 18 18" fill="none" xmlns="http://www.w3.org/2000/svg">
<path fill-rule="evenodd" clip-rule="evenodd" d="M3.9375 1.125C3.78832 1.125 3.64524 1.18426 3.53975 1.28975C3.43426 1.39524 3.375 1.53832 3.375 1.6875V16.3125C3.375 16.4617 3.43426 16.6048 3.53975 16.7102C3.64524 16.8157 3.78832 16.875 3.9375 16.875H14.0625C14.2117 16.875 14.3548 16.8157 14.4602 16.7102C14.5657 16.6048 14.625 16.4617 14.625 16.3125V1.6875C14.625 1.53832 14.5657 1.39524 14.4602 1.28975C14.3548 1.18426 14.2117 1.125 14.0625 1.125H3.9375ZM12.375 6.1875H5.625V5.0625H12.375V6.1875ZM12.375 9.5625H5.625V8.4375H12.375V9.5625ZM5.625 12.9375H10.125V11.8125H5.625V12.9375Z" fill="#000"/>
</svg>
