<svg width="20" height="20" viewBox="0 0 20 20" fill="none" xmlns="http://www.w3.org/2000/svg">
<path d="M2.38379 11.3542L10.1688 3.56917C10.5723 3.15709 11.0535 2.82911 11.5846 2.60421C12.1157 2.37931 12.6861 2.26195 13.2629 2.25893C13.8396 2.2559 14.4112 2.36726 14.9446 2.58657C15.478 2.80588 15.9627 3.12879 16.3705 3.53661C16.7783 3.94443 17.1012 4.42907 17.3205 4.96249C17.5399 5.49591 17.6512 6.06753 17.6482 6.64427C17.6452 7.221 17.5278 7.79142 17.3029 8.32251C17.078 8.85359 16.75 9.33482 16.338 9.73833L9.06629 17.0083C8.61581 17.4442 8.01208 17.6856 7.38527 17.6804C6.75847 17.6753 6.15879 17.424 5.71556 16.9807C5.27232 16.5375 5.02103 15.9378 5.01587 15.311C5.01071 14.6842 5.25208 14.0805 5.68796 13.63L12.6646 6.6525" stroke="black" stroke-width="1.5" stroke-linecap="round" stroke-linejoin="round"/>
</svg>
