<svg width="15" height="15" viewBox="0 0 15 15" fill="none" xmlns="http://www.w3.org/2000/svg">
<path fill-rule="evenodd" clip-rule="evenodd" d="M6.18313 1.42688C4.92169 1.42688 3.71192 1.92798 2.81995 2.81995C1.92798 3.71192 1.42688 4.92169 1.42688 6.18313C1.42688 7.44457 1.92798 8.65434 2.81995 9.54631C3.71192 10.4383 4.92169 10.9394 6.18313 10.9394C7.44457 10.9394 8.65434 10.4383 9.54631 9.54631C10.4383 8.65434 10.9394 7.44457 10.9394 6.18313C10.9394 4.92169 10.4383 3.71192 9.54631 2.81995C8.65434 1.92798 7.44457 1.42688 6.18313 1.42688ZM0 6.18313C0 4.54326 0.651435 2.97056 1.811 1.811C2.97056 0.651435 4.54326 0 6.18313 0C7.823 0 9.3957 0.651435 10.5553 1.811C11.7148 2.97056 12.3663 4.54326 12.3663 6.18313C12.3663 7.823 11.7148 9.3957 10.5553 10.5553C9.3957 11.7148 7.823 12.3663 6.18313 12.3663C4.54326 12.3663 2.97056 11.7148 1.811 10.5553C0.651435 9.3957 0 7.823 0 6.18313Z" fill="white"/>
<path fill-rule="evenodd" clip-rule="evenodd" d="M9.95962 9.95959C10.0934 9.82599 10.2747 9.75095 10.4638 9.75095C10.6528 9.75095 10.8342 9.82599 10.9679 9.95959L14.773 13.7646C14.8431 13.8299 14.8993 13.9087 14.9383 13.9962C14.9773 14.0837 14.9982 14.1782 14.9999 14.274C15.0016 14.3698 14.984 14.4649 14.9481 14.5538C14.9122 14.6426 14.8588 14.7233 14.7911 14.791C14.7233 14.8588 14.6426 14.9122 14.5538 14.9481C14.4649 14.984 14.3698 15.0016 14.274 14.9999C14.1782 14.9982 14.0837 14.9772 13.9962 14.9382C13.9087 14.8992 13.8299 14.843 13.7646 14.7729L9.95962 10.9679C9.82602 10.8341 9.75098 10.6528 9.75098 10.4638C9.75098 10.2747 9.82602 10.0934 9.95962 9.95959Z" fill="white"/>
</svg>
