<svg width="24" height="24" viewBox="0 0 24 24" fill="none" xmlns="http://www.w3.org/2000/svg">
<path fill-rule="evenodd" clip-rule="evenodd" d="M12.0001 1.485C11.3421 1.485 10.7701 1.906 9.62708 2.749L7.90608 4.018C7.72608 4.151 7.63608 4.217 7.53908 4.273C7.44208 4.329 7.33908 4.373 7.13408 4.463L5.17508 5.319C3.87308 5.889 3.22208 6.173 2.89308 6.742C2.56408 7.311 2.64308 8.018 2.80208 9.43L3.04008 11.555C3.06508 11.777 3.07708 11.888 3.07708 12C3.07708 12.112 3.06508 12.223 3.04008 12.445L2.80208 14.57C2.64408 15.982 2.56508 16.688 2.89308 17.258C3.22308 17.828 3.87308 18.112 5.17508 18.681L7.13508 19.537C7.33908 19.627 7.44208 19.671 7.53908 19.727C7.63508 19.783 7.72608 19.849 7.90608 19.982L9.62608 21.251C10.7711 22.094 11.3431 22.515 12.0001 22.515C12.6571 22.515 13.2301 22.094 14.3731 21.251L16.0941 19.982C16.2741 19.849 16.3641 19.783 16.4611 19.727C16.5581 19.671 16.6611 19.627 16.8661 19.537L18.8251 18.681C20.1271 18.111 20.7781 17.827 21.1071 17.258C21.4361 16.689 21.3571 15.982 21.1971 14.57L20.9601 12.445C20.9351 12.223 20.9221 12.112 20.9221 12C20.9221 11.888 20.9351 11.777 20.9601 11.555L21.1981 9.43C21.3561 8.018 21.4351 7.312 21.1071 6.742C20.7771 6.172 20.1271 5.888 18.8251 5.319L16.8651 4.463C16.727 4.40724 16.5921 4.34381 16.4611 4.273C16.3341 4.19491 16.2116 4.10977 16.0941 4.018L14.3741 2.749C13.2281 1.906 12.6561 1.485 12.0001 1.485ZM12.0001 16C13.0609 16 14.0784 15.5786 14.8285 14.8284C15.5787 14.0783 16.0001 13.0609 16.0001 12C16.0001 10.9391 15.5787 9.92172 14.8285 9.17157C14.0784 8.42143 13.0609 8 12.0001 8C10.9392 8 9.9218 8.42143 9.17165 9.17157C8.42151 9.92172 8.00008 10.9391 8.00008 12C8.00008 13.0609 8.42151 14.0783 9.17165 14.8284C9.9218 15.5786 10.9392 16 12.0001 16Z" fill="#686868"/>
</svg>
