<svg width="18" height="18" viewBox="0 0 18 18" fill="none" xmlns="http://www.w3.org/2000/svg">
<path d="M15.2515 2.41575L2.90427 6.5325C2.85372 6.54931 2.80948 6.58111 2.77743 6.62367C2.74537 6.66623 2.72703 6.71753 2.72483 6.77076C2.72264 6.82399 2.73669 6.87663 2.76512 6.92169C2.79356 6.96674 2.83503 7.00208 2.88403 7.023L7.42153 8.96775C7.4453 8.97805 7.47134 8.98201 7.4971 8.97925C7.52286 8.97649 7.54747 8.9671 7.56853 8.952L12.0168 5.7735C12.1548 5.676 12.3243 5.8455 12.2268 5.9835L9.04827 10.4318C9.03343 10.4528 9.02426 10.4773 9.02163 10.5029C9.019 10.5285 9.02301 10.5544 9.03328 10.578L10.9773 15.1155C10.9981 15.1645 11.0334 15.206 11.0784 15.2345C11.1234 15.263 11.176 15.2772 11.2293 15.275C11.2825 15.2729 11.3338 15.2547 11.3764 15.2227C11.419 15.1907 11.4509 15.1465 11.4678 15.096L15.5845 2.748C15.6 2.70172 15.6023 2.65204 15.5911 2.60453C15.5799 2.55702 15.5557 2.51357 15.5212 2.47906C15.4867 2.44455 15.4433 2.42034 15.3958 2.40916C15.3482 2.39798 15.2978 2.40026 15.2515 2.41575Z" fill="#686868"/>
</svg>
