<svg width="30" height="30" viewBox="0 0 30 30" fill="none" xmlns="http://www.w3.org/2000/svg">
<g clip-path="url(#clip0_698_40)">
<path d="M28.965 16.5167L27.1333 13.5183L28.0433 10.1233C28.1833 9.58665 27.9266 9.01499 27.425 8.78166L24.2633 7.24166L23.19 3.89332C23.0266 3.35665 22.49 3.02999 21.9416 3.08832L18.4533 3.50832L15.7466 1.26832C15.315 0.906654 14.685 0.906654 14.2533 1.26832L11.5466 3.50832L8.0583 3.08832C7.50997 3.02999 6.9733 3.35665 6.80997 3.89332L5.73664 7.24166L2.57497 8.78166C2.0733 9.01499 1.81664 9.58665 1.95664 10.1233L2.86664 13.5183L1.03497 16.5167C0.743303 16.995 0.836636 17.6133 1.24497 17.9983L3.84664 20.355L3.9283 23.8667C3.95164 24.4267 4.35997 24.905 4.9083 24.9983L8.3733 25.57L10.345 28.4867C10.66 28.9533 11.255 29.1283 11.7683 28.9067L15 27.5183L18.2316 28.9067C18.3833 28.965 18.535 29 18.6866 29C19.0716 29 19.4333 28.8133 19.655 28.4867L21.6266 25.57L25.0916 24.9983C25.64 24.905 26.0483 24.4267 26.0716 23.8667L26.1533 20.355L28.755 17.9983C29.1633 17.6133 29.2566 16.995 28.965 16.5167ZM20.0656 13.1835L14.888 19.1825C14.6581 19.4497 14.3326 19.5873 14.0036 19.5873C13.7528 19.5873 13.5008 19.5068 13.2885 19.3412L9.67764 16.533C9.16897 16.1375 9.07797 15.4048 9.47347 14.8962C9.86897 14.3898 10.6016 14.2942 11.1103 14.692L13.8461 16.8188L18.2981 11.6598C18.717 11.1698 19.4566 11.1173 19.9431 11.5385C20.432 11.9597 20.4868 12.6958 20.0656 13.1835Z" fill="white"/>
</g>
<defs>
<clipPath id="clip0_698_40">
<rect width="30" height="30" fill="white"/>
</clipPath>
</defs>
</svg>
